<svg width="77" height="24" viewBox="0 0 77 24" fill="none" xmlns="http://www.w3.org/2000/svg">
<g clip-path="url(#clip0_13_3882)">
<path fill-rule="evenodd" clip-rule="evenodd" d="M5.96862 24H7.75981V14.4H5.96862V24ZM12.5346 23.856H14.1388V17.799L20.8917 24V14.544H19.2919V20.4975L12.5346 14.4V23.856ZM24.554 21.531C25.4272 22.2135 26.4753 22.608 27.5989 22.608C28.6933 22.608 29.4611 22.23 29.4611 21.3953C29.4611 20.6678 28.9714 20.3828 28.114 20.064L26.7257 19.5803C25.4459 19.1243 24.4725 18.4582 24.4725 16.9275C24.4725 15.2902 25.946 14.4 27.708 14.4C28.7875 14.4 29.7713 14.6722 30.5398 15.1545V16.7783C29.7407 16.1858 28.866 15.7778 27.7424 15.7778C26.7751 15.7778 26.0522 16.14 26.0522 16.8953C26.0522 17.5778 26.5059 17.8507 27.3051 18.1252L28.8518 18.6697C30.3507 19.1985 31.0385 20.0183 31.0385 21.3668C31.0385 23.0633 29.5508 24 27.5989 24C26.3161 24 25.2254 23.64 24.554 23.1855V21.531ZM35.2174 24H37.0078V14.4H35.2174V24ZM45.4076 22.5472C47.426 22.5472 48.5048 21.2483 48.5048 19.1978C48.5048 17.1323 47.4253 15.8378 45.4076 15.8378H43.4116V22.5472H45.4076ZM41.7818 14.4H45.4674C48.3044 14.4 50.139 16.275 50.139 19.1978C50.139 22.1228 48.3044 24 45.4674 24H41.7818V14.4ZM59.0934 14.4V15.8378H54.7597V18.1478H58.6463V19.569H54.759V22.5472H59.0934V24H53.124V14.4H59.0934ZM65.4493 18.747H67.2262C68.2781 18.747 68.8709 18.168 68.8709 17.2778C68.8709 16.3875 68.2781 15.8077 67.2262 15.8077H65.4493V18.747ZM65.4493 20.1045V24H63.8681V14.4H67.2561C69.1879 14.4 70.4378 15.3983 70.4378 17.2778C70.4378 18.885 69.7441 19.8082 68.2661 20.0452L71.6279 24H69.8293L66.5744 20.1052H65.45L65.4493 20.1045ZM5.3429 4.9425C6.04338 4.68525 6.58911 3.9135 6.58911 2.85225C6.58911 1.08375 5.3429 0.16725 3.34913 0.16725H0V10.0395H3.66012C5.65389 10.0395 6.9001 9.0585 6.9001 7.20975C6.9001 6.16425 6.24597 5.24775 5.3429 4.9425ZM1.57289 4.3155V1.61475H3.33417C4.44058 1.61475 5.03191 2.01675 5.03191 2.949C5.03191 3.88125 4.43984 4.3155 3.33417 4.3155H1.57289ZM1.57289 5.6985H3.62872C4.72018 5.6985 5.31151 6.2445 5.31151 7.14525C5.31151 8.0295 4.71943 8.59275 3.62947 8.59275H1.57364V5.69775L1.57289 5.6985ZM14.2076 10.2C16.4974 10.2 18.0397 8.817 18.0397 6.11625V0.16725H16.4197V5.92275C16.4197 7.82025 15.6407 8.70525 14.2076 8.70525C12.7745 8.70525 11.9963 7.82025 11.9963 5.92275V0.16725H10.3763V6.09975C10.3763 8.817 11.9335 10.2 14.2076 10.2ZM21.8538 9.3315C22.5236 9.8145 23.6143 10.2 24.8912 10.2C26.8386 10.2 28.3181 9.2025 28.3181 7.4025C28.3181 5.9715 27.6333 5.103 26.1374 4.5405L24.5959 3.9615C23.8012 3.67275 23.3497 3.38325 23.3497 2.6595C23.3497 1.8555 24.0659 1.47 25.0317 1.47C26.1531 1.47 27.0255 1.9035 27.8202 2.53125V0.81C27.0569 0.29625 26.0753 0.00675 25.0003 0.00675C23.2405 0.00675 21.776 0.9555 21.776 2.69175C21.776 4.3155 22.7419 5.02275 24.0188 5.505L25.4055 6.0195C26.2622 6.357 26.7452 6.663 26.7452 7.43475C26.7452 8.319 25.9819 8.721 24.8912 8.721C23.7698 8.721 22.7262 8.3025 21.8538 7.5795V9.3315ZM34.1065 0.16725H32.4873V10.0388H34.1065V0.16725ZM38.728 10.0268H40.2889V3.6045L46.8586 10.1797V0.15225H45.3022V6.465L38.728 0V10.0268ZM56.9815 0.1695V1.64775H52.7757V4.02375H56.5472V5.4855H52.7757V8.54775H56.9815V10.0417H51.1878V0.1695H56.9815ZM60.753 9.32475C61.4228 9.80775 62.5128 10.1932 63.7904 10.1932C65.7371 10.1932 67.2173 9.1965 67.2173 7.39575C67.2173 5.96475 66.5317 5.097 65.0366 4.53375L63.4944 3.9555C62.6997 3.666 62.2481 3.3765 62.2481 2.65275C62.2481 1.84875 62.9643 1.46325 63.9302 1.46325C65.0515 1.46325 65.924 1.8975 66.7186 2.5245V0.804C65.9554 0.2895 64.9738 0 63.8988 0C62.139 0 60.6745 0.94875 60.6745 2.685C60.6745 4.30875 61.6404 5.016 62.9172 5.49825L64.304 6.01275C65.1607 6.35025 65.6436 6.65625 65.6436 7.428C65.6436 8.31225 64.8811 8.71425 63.7896 8.71425C62.6683 8.71425 61.6247 8.2965 60.753 7.57275V9.32475ZM70.5357 9.32475C71.2056 9.80775 72.2963 10.1932 73.5731 10.1932C75.5206 10.1932 77 9.1965 77 7.39575C77 5.96475 76.3145 5.097 74.8193 4.53375L73.2771 3.9555C72.4832 3.666 72.0309 3.3765 72.0309 2.65275C72.0309 1.84875 72.7478 1.46325 73.7129 1.46325C74.8343 1.46325 75.7074 1.8975 76.5014 2.5245V0.804C75.7388 0.2895 74.7573 0 73.6823 0C71.9217 0 70.458 0.94875 70.458 2.685C70.458 4.30875 71.4239 5.016 72.7007 5.49825L74.0875 6.01275C74.9442 6.35025 75.4271 6.65625 75.4271 7.428C75.4271 8.31225 74.6638 8.71425 73.5731 8.71425C72.4518 8.71425 71.4082 8.2965 70.5357 7.57275V9.32475Z" fill="#424680"/>
</g>
<defs>
<clipPath id="clip0_13_3882">
<rect width="77" height="24" fill="white"/>
</clipPath>
</defs>
</svg>
