<svg width="135" height="24" viewBox="0 0 135 24" fill="none" xmlns="http://www.w3.org/2000/svg">
<g clip-path="url(#clip0_13_3885)">
<path d="M90.2775 0H85.9132V8.23308C85.2833 2.07519 83.0112 0 79.6817 0C77.1846 0 75.3175 1.2406 74.1701 4.48872C73.3378 1.26316 70.9532 0 66.9938 0H62.6296V8.23308H62.5171C61.8872 2.07519 59.6151 0 56.2856 0C53.0687 0 50.774 2.07519 50.0542 8.23308H49.9417V0H44.3176L42.248 12.2932H42.1355L40.3583 0H34.5317V4.69173C34.0143 1.87218 32.3496 0 29.2226 0C25.7807 0 23.9135 2.39098 23.5986 5.41353C22.6537 1.35338 20.5841 0 17.8845 0C14.87 0 12.6879 1.78195 11.8555 6.8797C11.6531 3.22556 10.6182 0 6.23146 0C2.78954 0 0 3.13534 0 12C0 19.6015 1.55224 24 6.23146 24C10.3933 24 11.5406 20.6617 11.8555 17.3233C12.6879 22.3308 14.87 24 17.8845 24C20.7865 24 22.8787 22.3308 23.801 17.6391C24.0035 20.6617 25.1508 24 29.4251 24C31.8097 24 33.5869 22.9624 34.5317 21.1805V23.8872H37.7487V6.3609H37.8612L40.7632 23.8872H43.1478L46.0498 6.3609H46.1623V23.8872H50.0092V15.6541H50.1216C50.7515 21.812 53.0237 23.8872 56.3531 23.8872C59.5701 23.8872 61.8647 21.812 62.5846 15.6541H62.6971V23.8872H67.0613V14.3008H68.8385C71.0207 14.3008 72.4829 13.4662 73.4053 12.1128C73.4053 21.0902 75.9024 23.8872 79.7492 23.8872C82.9662 23.8872 85.2608 21.812 85.9807 15.6541V23.8872H95.8565V20.2331H90.3449V0H90.2775ZM8.34611 14.8195C8.23363 18.1579 7.94118 20.2331 6.47892 20.2331C5.12915 20.2331 4.70172 19.3985 4.70172 11.797C4.70172 4.08271 5.64656 3.56391 6.56891 3.56391C7.60373 3.56391 8.12115 5.03008 8.12115 8.77444L11.7655 8.66165C11.6531 9.69925 11.6531 10.7368 11.6531 12C11.6531 13.1504 11.6531 14.188 11.7655 15.1353L8.34611 14.8195ZM19.5717 14.391C19.5717 19.3985 18.9418 20.3233 18.0195 20.3233C16.9847 20.3233 16.4673 19.2857 16.4673 14.391V9.49624C16.4673 4.48872 17.0972 3.56391 18.0195 3.56391C19.0543 3.56391 19.5717 4.6015 19.5717 9.49624V14.391ZM29.6501 20.3459C27.7829 20.3459 27.7829 18.0451 27.7829 16.8045H24.0485C24.251 15.4511 24.3634 13.782 24.3634 11.9098C24.3634 10.9624 24.3634 10.0376 24.251 9.20301C26.1181 13.4887 31.5397 14.7293 31.5397 18.1805C31.5397 18.9699 31.1123 20.3459 29.6501 20.3459ZM27.5804 5.6391C27.5804 4.3985 28.2103 3.56391 29.2451 3.56391C31.0223 3.56391 31.0223 5.75188 31.0223 7.01504H34.6667V14.0075C32.5746 10.218 27.5804 8.75188 27.5804 5.6391ZM57.9503 14.391C57.9503 19.3985 57.3204 20.4361 56.3981 20.4361C55.3633 20.4361 54.8459 19.3985 54.8459 14.391V9.49624C54.8459 4.48872 55.4758 3.45113 56.3981 3.45113C57.4329 3.45113 57.9503 4.48872 57.9503 9.49624V14.391ZM67.3988 10.8496H66.9938V3.65414H67.3088C68.771 3.65414 70.1208 3.76692 70.1208 7.19549C70.1208 10.1278 69.176 10.8496 67.3988 10.8496ZM81.234 14.391C81.234 19.3985 80.6041 20.4361 79.6817 20.4361C78.6469 20.4361 78.1295 19.3985 78.1295 14.391V9.49624C78.1295 4.48872 78.7594 3.45113 79.6817 3.45113C80.7166 3.45113 81.234 4.48872 81.234 9.49624V14.391ZM96.5314 0H100.896V23.8872H96.5314V0ZM113.381 0H101.526V3.65414H105.26V23.8872H109.624V3.65414H113.359V0M131.356 0V12.609H131.243L127.284 0H123.01V20.8647L120.4 0.0225564H114.056L110.727 23.9098H114.371L115.001 18.5865H118.578L119.208 23.9098H126.789V9.40602H126.901L131.581 23.9098H135V0H131.356ZM115.563 15.1128L116.913 3.65414H117.026L118.263 15.1128H115.563Z" fill="#424680"/>
</g>
<defs>
<clipPath id="clip0_13_3885">
<rect width="135" height="24" fill="white"/>
</clipPath>
</defs>
</svg>
