<svg width="89" height="24" viewBox="0 0 89 24" fill="none" xmlns="http://www.w3.org/2000/svg">
<path d="M67.3541 3.10744C67.3138 3.18354 67.3482 3.3347 67.3368 3.43974C67.3368 3.64737 67.3368 3.85502 67.3368 4.06266C67.5779 4.0733 67.8262 4.03798 68.0625 4.08831C68.2671 4.16202 68.2505 4.4158 68.2536 4.59526C68.2523 9.65578 68.256 14.7164 68.2517 19.7768C68.2519 19.9248 68.2354 20.1301 68.0518 20.1509C67.9219 20.1642 67.7902 20.153 67.6597 20.1567C67.6597 20.4751 67.6597 20.7935 67.6597 21.1119C69.0801 21.1119 70.5004 21.1119 71.9208 21.1119C71.9208 20.7935 71.9208 20.4751 71.9208 20.1567C71.6718 20.1438 71.4159 20.1839 71.1712 20.1335C70.971 20.0809 70.9516 19.8313 70.9579 19.6565C70.9579 14.0494 70.9579 8.44239 70.9579 2.83534C69.7565 2.92342 68.5553 3.01717 67.3541 3.10744ZM77.514 3.10744C77.4737 3.18354 77.5082 3.3347 77.4967 3.43974C77.4967 3.64737 77.4967 3.85502 77.4967 4.06266C77.7221 4.07916 77.9595 4.02494 78.1763 4.09989C78.3821 4.17884 78.4082 4.47324 78.4077 4.68789C78.4064 9.72868 78.4105 14.7698 78.4057 19.8104C78.3975 19.9755 78.3135 20.1301 78.1425 20.1451C78.0338 20.163 77.9235 20.155 77.8138 20.1567C77.8138 20.4751 77.8138 20.7935 77.8138 21.1119C79.1131 21.1119 80.4124 21.1119 81.7117 21.1119C81.7117 20.7935 81.7117 20.4751 81.7117 20.1567C81.5377 20.1427 81.3479 20.1931 81.187 20.1104C81.0758 19.9673 81.1338 19.7622 81.1178 19.5916C81.1199 16.7056 81.1137 13.8194 81.1209 10.9333C81.1333 10.4592 81.1491 9.95351 81.3863 9.53158C81.4523 9.42263 81.5276 9.31808 81.6253 9.25558C81.926 9.04248 82.3424 9.00655 82.6805 9.14558C82.8303 9.21761 82.9064 9.36766 82.9564 9.53441C83.0697 10.0821 83.0116 10.6474 83.0264 11.2031C83.0249 14.0837 83.0295 16.9647 83.0241 19.8451C83.0197 20.0025 82.9109 20.1549 82.7429 20.1535C82.6168 20.161 82.4898 20.1545 82.3633 20.1567C82.3633 20.4751 82.3633 20.7935 82.3633 21.1119C83.6934 21.1119 85.0234 21.1119 86.3535 21.1119C86.3535 20.7935 86.3535 20.4751 86.3535 20.1567C86.1673 20.141 85.9295 20.2124 85.7942 20.0467C85.6938 19.8165 85.7532 19.5534 85.7365 19.3091C85.7345 16.1031 85.7404 12.8969 85.7336 9.69099C85.7071 9.10644 85.6095 8.48516 85.2349 8.01669C84.9917 7.71061 84.6232 7.51508 84.2405 7.43218C83.6453 7.30728 82.998 7.31514 82.4454 7.59432C81.9797 7.81255 81.6174 8.20072 81.3032 8.59911C81.2426 8.66959 81.1566 8.83167 81.1178 8.84918C81.1178 6.84456 81.1178 4.83995 81.1178 2.83534C79.9165 2.92342 78.7153 3.01717 77.514 3.10744ZM2.81939 3.1248C2.81939 3.43742 2.81939 3.75004 2.81939 4.06266C3.0461 4.07931 3.3077 4.00631 3.4998 4.16107C3.57718 4.20492 3.64069 4.29618 3.69274 4.38328C3.9128 4.75522 3.92154 5.20934 3.92073 5.63153C3.91931 10.0247 3.92356 14.4181 3.9186 18.8112C3.91391 19.1969 3.84384 19.6225 3.62665 19.9309C3.51558 20.0775 3.34523 20.1753 3.15037 20.1567C3.04576 20.1682 2.89519 20.1336 2.81939 20.174C2.81939 20.4867 2.81939 20.7993 2.81939 21.1119C4.02067 21.1119 5.22195 21.1119 6.42323 21.1119C6.42323 20.7935 6.42323 20.4751 6.42323 20.1567C6.17798 20.1441 5.92606 20.1835 5.68517 20.1335C5.49226 20.0601 5.37871 19.9089 5.29833 19.7185C5.07676 19.1596 5.15954 18.546 5.14315 17.9591C5.14315 14.45 5.14315 10.941 5.14315 7.43198C6.08993 11.9843 7.04301 16.536 7.98586 21.0887C8.45484 21.0887 8.92381 21.0887 9.3928 21.0887C10.3357 16.5206 11.2887 11.9534 12.2355 7.38566C12.234 11.3196 12.2386 15.2537 12.2332 19.1875C12.2213 19.4952 12.209 19.8556 11.9645 20.0756C11.8626 20.143 11.707 20.1699 11.5724 20.1567C11.3821 20.1567 11.1918 20.1567 11.0015 20.1567C11.0015 20.4751 11.0015 20.7935 11.0015 21.1119C12.7275 21.1119 14.4535 21.1119 16.1795 21.1119C16.1795 20.7935 16.1795 20.4751 16.1795 20.1567C15.949 20.1358 15.6877 20.2148 15.4844 20.0761C15.3206 19.9773 15.2644 19.7362 15.2326 19.5453C15.1692 19.0081 15.2117 18.4652 15.1993 17.9255C15.2008 13.6276 15.1962 9.32962 15.2016 5.03182C15.2247 4.72509 15.2267 4.3611 15.4761 4.1437C15.5897 4.06529 15.7741 4.05548 15.9235 4.06266C16.0162 4.03954 16.2211 4.12906 16.1795 3.97119C16.1795 3.68327 16.1795 3.39535 16.1795 3.10744C14.7361 3.10744 13.2926 3.10744 11.8492 3.10744C11.1137 6.86122 10.3684 10.614 9.62921 14.3675C8.84388 10.614 8.05222 6.86127 7.27085 3.10744C5.78703 3.10744 4.30321 3.10744 2.81939 3.10744V3.1248ZM39.6593 3.1248C39.6593 3.43742 39.6593 3.75004 39.6593 4.06266C39.9272 4.07944 40.2064 4.02291 40.4661 4.10491C40.7084 4.19069 40.7275 4.48261 40.7482 4.71092C40.7637 5.79093 40.7505 6.87159 40.7548 7.95185C40.7537 11.8873 40.7571 15.823 40.7532 19.7583C40.7521 19.9445 40.6398 20.1179 40.4492 20.1335C40.1888 20.1779 39.9223 20.1478 39.6593 20.1567C39.6593 20.4751 39.6593 20.7935 39.6593 21.1119C41.4006 21.1119 43.142 21.1119 44.8834 21.1119C44.8834 20.7935 44.8834 20.4751 44.8834 20.1567C44.6054 20.1416 44.3195 20.1913 44.0473 20.1219C43.817 20.0486 43.7684 19.7615 43.7503 19.5396C43.7306 18.6593 43.7471 17.778 43.7417 16.8973C43.7417 15.4558 43.7417 14.0143 43.7417 12.5728C44.8872 12.5728 46.0328 12.5728 47.1783 12.5728C47.1761 14.8591 47.1828 17.1456 47.175 19.4318C47.1588 19.6685 47.1402 19.9694 46.9131 20.0988C46.6624 20.2045 46.3814 20.1377 46.1174 20.1567C45.9705 20.1223 46.0618 20.3271 46.0366 20.4149C46.0366 20.6472 46.0366 20.8795 46.0366 21.1119C47.7703 21.1119 49.504 21.1119 51.2377 21.1119C51.2377 20.7935 51.2377 20.4751 51.2377 20.1567C50.9719 20.1385 50.692 20.201 50.4371 20.1069C50.1899 19.9895 50.1768 19.6713 50.1684 19.4296C50.148 18.518 50.165 17.6055 50.1594 16.6936C50.1609 12.7793 50.1565 8.86494 50.1616 4.95077C50.1774 4.68149 50.1486 4.32804 50.367 4.14949C50.6059 4.00485 50.9005 4.08291 51.165 4.06266C51.3047 4.08631 51.2101 3.87483 51.2377 3.78593C51.2377 3.55977 51.2377 3.3336 51.2377 3.10744C49.504 3.10744 47.7703 3.10744 46.0366 3.10744C46.0366 3.42584 46.0366 3.74425 46.0366 4.06266C46.3108 4.07744 46.5927 4.02846 46.8612 4.09739C47.0959 4.1667 47.1532 4.46089 47.1684 4.68636C47.1912 5.36046 47.172 6.03599 47.1783 6.71064C47.1783 8.29418 47.1783 9.87773 47.1783 11.4613C46.0328 11.4613 44.8872 11.4613 43.7417 11.4613C43.7438 9.23672 43.7374 7.01197 43.7449 4.78754C43.7539 4.58217 43.7713 4.33301 43.9032 4.18423C44.1203 3.99645 44.4303 4.08302 44.692 4.06266C44.8202 4.0783 44.9295 4.07501 44.8834 3.91561C44.8834 3.64622 44.8834 3.37683 44.8834 3.10744C43.142 3.10744 41.4006 3.10744 39.6593 3.10744V3.1248ZM32.6822 3.11901C32.3455 3.14802 32.0443 3.34017 31.8404 3.59952C31.7129 3.74753 31.604 3.97058 31.5785 4.18522C31.5054 4.64898 31.7399 5.10785 32.073 5.41261C32.3219 5.65766 32.6252 5.84333 32.9475 5.97889C32.4932 6.49053 31.9996 6.96474 31.5117 7.44356C31.7108 7.65673 31.9066 7.87299 32.1056 8.08616C32.6845 7.64261 33.2511 7.16963 33.7193 6.60258C34.0821 6.18497 34.3778 5.67034 34.4387 5.10835C34.4958 4.47567 34.201 3.82821 33.7086 3.44321C33.5653 3.32923 33.3637 3.21401 33.166 3.16663C33.0097 3.12297 32.8442 3.10318 32.6822 3.11901ZM74.4003 4.0395C74.1023 4.91827 73.813 5.81008 73.3719 6.62794C73.218 6.90204 73.0469 7.17578 72.8031 7.35672C72.5404 7.56674 72.1951 7.59826 71.8712 7.5825C71.7064 7.53351 71.7129 7.65667 71.7248 7.78512C71.7248 8.05914 71.7248 8.33316 71.7248 8.60719C72.0304 8.60719 72.336 8.60719 72.6416 8.60719C72.6435 12.0054 72.6378 15.4038 72.6445 18.8019C72.666 19.3658 72.6948 19.9544 72.9501 20.4683C73.1117 20.7875 73.4 21.0407 73.7433 21.1534C74.3168 21.3574 74.9392 21.3592 75.5394 21.3206C76.0396 21.2671 76.5591 21.0926 76.8865 20.6931C77.1413 20.4263 77.28 20.0585 77.3562 19.6985C77.5043 19.0413 77.4339 18.3628 77.4506 17.6951C77.4506 17.3848 77.4506 17.0745 77.4506 16.7642C77.1123 16.7642 76.774 16.7642 76.4357 16.7642C76.4298 17.6007 76.4484 18.4382 76.4247 19.2741C76.4006 19.5242 76.3865 19.8417 76.1474 19.983C75.9192 20.1036 75.5639 20.0622 75.4497 19.8035C75.2965 19.4112 75.3611 18.9769 75.3459 18.5646C75.3459 15.2532 75.3459 11.9418 75.3459 8.63034C76.0321 8.63034 76.7183 8.63034 77.4044 8.63034C77.4044 8.28106 77.4044 7.93178 77.4044 7.5825C76.726 7.5825 76.0475 7.5825 75.369 7.5825C75.369 6.39764 75.369 5.21278 75.369 4.02792C75.048 4.02792 74.727 4.02792 74.406 4.02792L74.4003 4.0395ZM19.7084 7.36251C18.9628 7.40674 18.2469 7.75917 17.7391 8.3034C17.3571 8.68775 17.0562 9.14717 16.8325 9.64217C16.3064 10.7776 16.0918 12.0316 16.0071 13.2731C15.9199 14.7112 15.9688 16.1635 16.225 17.5829C16.3928 18.4181 16.6557 19.2511 17.1358 19.9605C17.423 20.3552 17.7738 20.7114 18.2092 20.944C18.8343 21.29 19.5671 21.3753 20.2711 21.3334C20.8847 21.2942 21.5284 21.1813 22.0322 20.8051C22.3229 20.5735 22.5717 20.2798 22.72 19.9333C23.0364 19.2159 23.0898 18.4157 23.0787 17.6407C23.0758 17.379 23.0598 17.1177 23.0413 16.8568C22.7107 16.8568 22.3801 16.8568 22.0495 16.8568C22.0513 17.589 22.0712 18.3302 21.9226 19.0509C21.8449 19.3589 21.7317 19.6824 21.4671 19.8788C21.2825 19.9938 21.0267 20.0626 20.7938 20.0629C20.3964 20.0811 19.9409 20.0661 19.6162 19.8383C19.4286 19.689 19.318 19.5066 19.2327 19.2828C18.9819 18.5464 18.9653 17.7571 18.9337 16.9865C18.9007 15.9904 18.908 14.9935 18.9069 13.9969C20.3619 13.9969 21.8169 13.9969 23.2719 13.9969C23.2621 12.7989 23.2289 11.5929 23.0065 10.4128C22.8583 9.66776 22.6389 8.90199 22.1648 8.30036C21.8949 7.97225 21.557 7.70255 21.1562 7.55607C20.6953 7.38345 20.1968 7.34105 19.7084 7.36251ZM29.0092 7.36251C28.4088 7.40263 27.8303 7.6784 27.409 8.10431C27.1637 8.33114 26.9553 8.58792 26.7719 8.8677C26.7719 8.3872 26.7719 7.90669 26.7719 7.42619C25.5802 7.50634 24.3887 7.59498 23.1969 7.67512C23.1969 7.99353 23.1969 8.31194 23.1969 8.63034C23.4111 8.64116 23.6322 8.60726 23.842 8.65021C24.0489 8.70862 24.1059 8.96153 24.108 9.16295C24.1214 10.3235 24.1099 11.4849 24.1138 12.6457C24.1113 15.0104 24.1187 17.3752 24.1101 19.7398C24.1105 19.9098 24.0544 20.1128 23.8711 20.1386C23.657 20.1758 23.4367 20.1481 23.22 20.1567C23.22 20.4751 23.22 20.7935 23.22 21.1119C24.6173 21.1119 26.0147 21.1119 27.412 21.1119C27.412 20.7935 27.412 20.4751 27.412 20.1567C27.238 20.1427 27.0482 20.1931 26.8873 20.1104C26.7714 19.9482 26.836 19.7248 26.8181 19.5361C26.8201 16.6685 26.814 13.8008 26.8211 10.9333C26.8326 10.4593 26.85 9.95341 27.0887 9.53316C27.1447 9.42525 27.2261 9.33497 27.3255 9.24979C27.4587 9.1679 27.6368 9.08496 27.8108 9.07367C28.0613 9.04357 28.3969 9.07823 28.5364 9.27874C28.7482 9.58788 28.7092 9.98643 28.7267 10.344C28.7251 13.5109 28.7297 16.6783 28.7244 19.8451C28.7146 20.0008 28.6219 20.1468 28.4614 20.1509C28.3296 20.1641 28.1961 20.153 28.0636 20.1567C28.0636 20.4751 28.0636 20.7935 28.0636 21.1119C29.3936 21.1119 30.7237 21.1119 32.0537 21.1119C32.0537 20.7935 32.0537 20.4751 32.0537 20.1567C31.8676 20.141 31.6297 20.2124 31.4944 20.0467C31.3941 19.8165 31.4534 19.5534 31.4368 19.3091C31.4348 16.1031 31.4407 12.8969 31.4338 9.69099C31.4073 9.10644 31.3097 8.48516 30.9351 8.01669C30.717 7.74295 30.3979 7.5528 30.0575 7.46177C29.7191 7.36673 29.3589 7.34496 29.0092 7.36251ZM35.4096 7.3683C34.6534 7.42098 33.8984 7.74942 33.4149 8.3449C33.1422 8.64699 32.9666 9.03025 32.8479 9.42035C32.6444 10.0995 32.6686 10.8225 32.7425 11.5201C32.8424 12.3345 33.175 13.1092 33.671 13.7589C34.1881 14.4621 34.7964 15.0971 35.3606 15.7656C35.624 16.0692 35.8982 16.3667 36.1277 16.6822C36.4676 17.1224 36.7802 17.6059 36.8715 18.1661C36.9467 18.6151 36.9408 19.0892 36.8034 19.5258C36.7324 19.7226 36.6327 19.8833 36.4526 19.9994C36.1192 20.2274 35.686 20.2219 35.2996 20.1807C35.0745 20.1413 34.8485 20.0508 34.6902 19.904C34.4897 19.7479 34.3787 19.5229 34.2647 19.2949C33.9431 18.5394 33.8968 17.708 33.7597 16.907C33.7409 16.8002 33.5523 16.8829 33.4607 16.8568C33.2108 16.8568 32.9609 16.8568 32.7111 16.8568C32.7111 18.2752 32.7111 19.6935 32.7111 21.1119C33.0051 21.1119 33.2992 21.1119 33.5933 21.1119C33.648 20.8583 33.7269 20.5797 33.9315 20.4069C34.0535 20.3031 34.1519 20.4713 34.2349 20.5461C34.7313 21.0587 35.4459 21.3348 36.1568 21.3407C36.8661 21.3514 37.6044 21.175 38.1658 20.724C38.5127 20.4309 38.8044 20.064 38.9745 19.6359C39.3202 18.83 39.3281 17.9259 39.2272 17.0679C39.1449 16.2651 38.8232 15.5024 38.3618 14.8467C37.6582 13.8696 36.7872 13.0251 36.0139 12.102C35.7662 11.779 35.4833 11.4365 35.3107 11.0484C35.0713 10.5288 35.0082 9.93431 35.0903 9.37057C35.1256 9.12709 35.2446 8.87719 35.4327 8.75192C35.7817 8.50976 36.2398 8.54124 36.6396 8.60749C36.8659 8.65769 37.0772 8.78083 37.226 8.94296C37.267 9.00495 37.3296 9.06744 37.3647 9.14917C37.6317 9.60274 37.6565 10.1467 37.7254 10.6577C37.76 10.9449 37.8004 11.2317 37.8314 11.5192C38.1774 11.5192 38.5233 11.5192 38.8693 11.5192C38.8693 10.2069 38.8693 8.89472 38.8693 7.5825C38.5848 7.5825 38.3004 7.5825 38.0159 7.5825C37.9833 7.8125 38.0127 8.06736 37.9064 8.2772C37.8202 8.2944 37.7708 8.16818 37.6979 8.13361C37.5476 8.00372 37.3506 7.86517 37.1618 7.75822C36.6297 7.46069 36.0209 7.3023 35.4096 7.3683ZM54.7666 7.36251C54.0475 7.40646 53.3534 7.73461 52.8519 8.24855C52.1808 8.90065 51.775 9.77584 51.505 10.6644C51.122 11.9572 51.0185 13.3159 51.027 14.6592C51.0421 15.715 51.108 16.7766 51.3337 17.8099C51.4982 18.552 51.7472 19.2898 52.1722 19.9233C52.5568 20.4878 53.1097 20.9528 53.769 21.1596C54.4341 21.3825 55.1549 21.3758 55.8427 21.2796C56.3731 21.1992 56.9173 21.0168 57.2965 20.624C57.6698 20.2747 57.876 19.7885 57.9908 19.2947C58.1804 18.4978 58.1558 17.6686 58.0994 16.8568C57.7688 16.8568 57.4382 16.8568 57.1076 16.8568C57.1187 17.5666 57.1269 18.2845 56.9945 18.9845C56.9339 19.2939 56.8176 19.6201 56.5887 19.8267C56.2409 20.1076 55.7625 20.0757 55.3422 20.0557C55.0226 20.0281 54.6961 19.9208 54.5001 19.6656C54.317 19.4211 54.2109 19.0864 54.1539 18.7731C54.0199 18.1005 54.0135 17.4105 53.9825 16.7273C53.9629 15.8173 53.9645 14.9071 53.9651 13.9969C55.4201 13.9969 56.875 13.9969 58.33 13.9969C58.3203 12.7989 58.2871 11.5929 58.0647 10.4128C57.9159 9.66811 57.6978 8.90104 57.2229 8.30036C56.953 7.97225 56.6151 7.70255 56.2144 7.55607C55.754 7.38206 55.2546 7.34169 54.7666 7.36251ZM62.3663 7.36251C61.6084 7.39113 60.8375 7.60936 60.2329 8.08037C59.9735 8.31641 59.7225 8.5782 59.5821 8.90663C59.2972 9.51187 59.3917 10.2421 59.7143 10.8107C59.8334 11.019 60.0071 11.2027 60.2098 11.3339C60.5329 11.5183 60.9435 11.5336 61.2757 11.3604C61.5222 11.2471 61.7224 11.0466 61.8589 10.8129C62.0687 10.3961 61.9443 9.86599 61.6259 9.54418C61.3528 9.2188 60.9957 8.98126 60.6192 8.79244C60.9509 8.55496 61.3695 8.47508 61.7678 8.43236C62.1264 8.41172 62.5119 8.41521 62.8366 8.58357C62.9805 8.66879 63.0886 8.78482 63.1412 8.95421C63.2889 9.44012 63.2207 9.95687 63.237 10.4574C63.237 11.1239 63.237 11.7905 63.237 12.457C62.4409 12.7257 61.6429 13.0034 60.8942 13.389C60.2851 13.7001 59.7274 14.1462 59.3766 14.7427C58.9635 15.4863 58.8536 16.3514 58.8181 17.1902C58.7813 18.078 58.8074 18.9888 59.0923 19.8381C59.2268 20.2225 59.428 20.5843 59.7345 20.8547C60.1353 21.2387 60.7225 21.3737 61.2673 21.3359C61.8082 21.3069 62.3437 21.0926 62.7344 20.7171C63.0377 20.4306 63.2881 20.0952 63.4792 19.7225C63.5639 20.0953 63.661 20.4842 63.8944 20.7935C64.1044 21.0542 64.4099 21.2264 64.7429 21.283C65.2961 21.3753 65.89 21.3792 66.413 21.1549C66.8182 20.9668 67.0827 20.5792 67.2035 20.1558C67.3675 19.6078 67.3797 19.0286 67.3886 18.4604C67.1023 18.4604 66.8159 18.4604 66.5295 18.4604C66.5218 18.8963 66.5514 19.3412 66.4592 19.7689C66.424 19.9535 66.1971 19.9928 66.0509 19.9251C65.9234 19.7958 65.9651 19.5912 65.9492 19.425C65.9423 16.488 65.9526 13.5507 65.944 10.6138C65.9333 9.82816 65.7906 8.99942 65.3013 8.36404C65.0581 8.07266 64.7572 7.82583 64.4051 7.67568C63.769 7.39457 63.0535 7.33758 62.3663 7.36251ZM19.916 8.51456C20.1551 8.50726 20.4193 8.56344 20.5211 8.79957C20.6744 9.10678 20.6755 9.46487 20.699 9.802C20.7419 10.8679 20.7164 11.9348 20.7233 13.0012C20.1178 13.0012 19.5124 13.0012 18.9069 13.0012C18.9292 11.9713 18.9318 10.9387 19.0296 9.91256C19.0812 9.52769 19.1077 9.11431 19.3154 8.77727C19.4361 8.56302 19.6786 8.50422 19.916 8.51456ZM54.9741 8.51456C55.2132 8.50726 55.4774 8.56344 55.5792 8.79957C55.7723 9.20493 55.7404 9.67314 55.7715 10.1121C55.7924 11.0749 55.7764 12.0382 55.7814 13.0012C55.176 13.0012 54.5705 13.0012 53.9651 13.0012C53.9889 11.8467 53.9918 10.6877 54.1353 9.54042C54.1961 9.20378 54.2561 8.81359 54.5359 8.6014C54.6716 8.52909 54.8226 8.51163 54.9741 8.51456ZM63.237 18.0668C63.235 18.4793 63.227 18.919 63.0329 19.2908C62.9239 19.5096 62.7308 19.6472 62.4915 19.7002C62.2747 19.7429 62.012 19.7345 61.8301 19.6298C61.6847 19.5234 61.6102 19.3627 61.5645 19.1765C61.4572 18.6741 61.4767 18.1544 61.4668 17.643C61.4838 16.762 61.4399 15.8672 61.6354 15.002C61.7032 14.7061 61.8195 14.4228 61.9973 14.1764C62.0823 14.0517 62.2299 13.9013 62.3526 13.8127C62.5243 13.6602 62.7261 13.5402 62.931 13.413C63.034 13.3547 63.1349 13.2927 63.237 13.2328C63.237 14.8441 63.237 16.4554 63.237 18.0668ZM54.83 8.45667C54.5251 8.45209 54.2909 8.68536 54.2072 8.96033C54.006 9.56921 54.0074 10.2163 53.9593 10.8418C53.9223 11.5718 53.9128 12.3058 53.9016 13.0359V13.0649H53.9305C54.559 13.0649 55.1875 13.0649 55.816 13.0649H55.8448V13.0359C55.838 12.0355 55.862 11.033 55.8333 10.0313C55.8041 9.59655 55.827 9.12273 55.6084 8.71718V8.71139C55.5257 8.57567 55.3972 8.50645 55.2567 8.47404C55.1162 8.44163 54.9667 8.44679 54.83 8.45667ZM54.83 8.51456C54.9645 8.50484 55.1148 8.50185 55.2452 8.53193C55.3755 8.56201 55.489 8.62594 55.5623 8.74613C55.7678 9.13171 55.7463 9.59907 55.7756 10.0371C55.804 11.0271 55.7809 12.0151 55.7872 13.007C55.1779 13.007 54.5686 13.007 53.9593 13.007C53.9703 12.2865 53.9805 11.5666 54.017 10.8476C54.0653 10.2188 54.0619 9.5802 54.2591 8.98349L54.2649 8.9777C54.3423 8.7233 54.556 8.51044 54.83 8.51456ZM32.6822 3.09007C32.336 3.1199 32.0256 3.31726 31.8173 3.58215C31.6846 3.73639 31.5708 3.96548 31.5463 4.19002C31.4691 4.69164 31.74 5.17349 32.1056 5.4868C32.3319 5.70468 32.6106 5.86365 32.8956 5.99046C32.4499 6.48933 31.9669 6.95099 31.4887 7.4204L31.4714 7.44356L31.4887 7.46092C31.6875 7.67387 31.8833 7.89014 32.0826 8.10353L32.0999 8.12668L32.1229 8.10932C32.7025 7.66526 33.2727 7.19134 33.7432 6.62149C34.1086 6.20081 34.408 5.68079 34.4697 5.1105C34.5279 4.4669 34.2264 3.8114 33.7259 3.42005C33.5796 3.30372 33.3761 3.18522 33.1724 3.13638C33.0131 3.0919 32.8485 3.07381 32.6822 3.09007ZM32.6822 3.14796C32.8399 3.13254 33.0075 3.15144 33.1608 3.19427C33.3524 3.2402 33.551 3.35475 33.6913 3.46637C34.1756 3.84501 34.4683 4.48293 34.4121 5.10471C34.3522 5.6584 34.0572 6.16642 33.6971 6.58096C33.2364 7.13894 32.6771 7.60688 32.1056 8.04563C31.9209 7.84741 31.7371 7.64793 31.5521 7.44935C32.0341 6.97647 32.5207 6.50295 32.9705 5.99625L32.9994 5.96731L32.959 5.94994C32.664 5.82194 32.3754 5.66139 32.146 5.44049C31.7923 5.13739 31.5366 4.67107 31.6097 4.19581C31.6326 3.98654 31.739 3.7615 31.8634 3.61689C32.063 3.36307 32.3551 3.17614 32.6822 3.14796ZM81.1178 2.8064C79.9164 2.89636 78.7152 2.9921 77.514 3.08428H77.4967L77.4852 3.10165C77.4596 3.14994 77.4657 3.20797 77.4679 3.26953C77.4701 3.3311 77.4731 3.39541 77.4679 3.44321C77.4679 3.64892 77.4679 3.85695 77.4679 4.06266V4.0916H77.4967C77.7284 4.10915 77.9594 4.05415 78.1656 4.12634C78.249 4.15763 78.3002 4.23461 78.3328 4.32896C78.3654 4.4233 78.3785 4.53174 78.3789 4.63C78.3776 9.68933 78.3837 14.7502 78.3789 19.8093C78.3751 19.8873 78.349 19.9624 78.3097 20.0177C78.2705 20.073 78.2197 20.1094 78.1425 20.1161H78.1367C78.0328 20.1338 77.9254 20.1257 77.8138 20.1277H77.785V20.1567C77.785 20.4751 77.785 20.7935 77.785 21.1119V21.1408H77.8138C79.1131 21.1408 80.4124 21.1408 81.7117 21.1408H81.7406V21.1119C81.7406 20.7935 81.7406 20.4751 81.7406 20.1567V20.1277H81.7117C81.5345 20.1135 81.3566 20.1505 81.2101 20.0814C81.1657 20.0189 81.148 19.9452 81.1467 19.8614C81.1453 19.7736 81.1551 19.679 81.1467 19.5893C81.1487 16.7032 81.1453 13.8204 81.1524 10.9345C81.1648 10.4605 81.1794 9.95866 81.4119 9.54504C81.4837 9.43447 81.5384 9.35179 81.6426 9.27295C81.7569 9.20747 81.9006 9.13157 82.0404 9.11664C82.2634 9.08063 82.531 9.08904 82.7093 9.19769C82.8346 9.29354 82.9031 9.43179 82.9399 9.58556C82.9767 9.73934 82.9849 9.90565 82.9918 10.0603C83.0082 11.1625 82.993 12.2684 82.9976 13.3717C82.9961 15.5299 82.9972 17.6863 82.9918 19.844C82.9898 19.9162 82.9666 19.9889 82.9226 20.0409C82.8787 20.0928 82.8189 20.1226 82.7439 20.1219C82.62 20.1293 82.4911 20.1255 82.3633 20.1277H82.3345V20.1567C82.3345 20.4751 82.3345 20.7935 82.3345 21.1119V21.1408H82.3633C83.6934 21.1408 85.0234 21.1408 86.3535 21.1408H86.3823V21.1119C86.3823 20.7935 86.3823 20.4751 86.3823 20.1567V20.1277H86.3535C86.2557 20.1195 86.1496 20.1324 86.0536 20.1277C85.9606 20.1232 85.8834 20.1045 85.823 20.0351C85.8222 20.0333 85.8237 20.0311 85.823 20.0293C85.7315 19.8134 85.7811 19.5581 85.7653 19.3114C85.7653 19.3095 85.7653 19.3076 85.7653 19.3057C85.7634 16.1016 85.7722 12.8938 85.7653 9.68977C85.7385 9.10296 85.6387 8.47584 85.2579 7.99932C85.0135 7.69148 84.6475 7.4956 84.2661 7.40882C83.6677 7.28094 83.012 7.27961 82.4498 7.55934C81.9694 7.77949 81.5979 8.17331 81.2793 8.57824C81.2462 8.61672 81.2092 8.67761 81.1755 8.72876C81.1648 8.74494 81.1562 8.75569 81.1467 8.76929C81.1467 6.79169 81.1467 4.81294 81.1467 2.83534V2.8064H81.1178ZM81.089 2.86429C81.089 4.85925 81.089 6.85537 81.089 8.85033V8.89665L81.1294 8.87349C81.1508 8.8638 81.1601 8.85293 81.1755 8.83297C81.1909 8.81301 81.2103 8.78365 81.2274 8.75771C81.2615 8.70582 81.2979 8.65077 81.3254 8.61877C81.6418 8.21668 82.0063 7.82525 82.4729 7.61144C83.0188 7.33979 83.6648 7.34068 84.2546 7.46671C84.6252 7.55104 84.9777 7.73922 85.2118 8.03406C85.5798 8.49459 85.6753 9.10762 85.7019 9.68977C85.7088 12.8956 85.7057 16.1054 85.7077 19.3114C85.7239 19.5495 85.66 19.8166 85.7653 20.0583L85.7711 20.064C85.8454 20.1551 85.9503 20.1806 86.0536 20.1856C86.1471 20.1901 86.2419 20.1823 86.3247 20.1856C86.3247 20.4847 86.3247 20.7838 86.3247 21.0829C85.0138 21.0829 83.703 21.0829 82.3921 21.0829C82.3921 20.7838 82.3921 20.4847 82.3921 20.1856C82.5081 20.1847 82.6254 20.1927 82.7439 20.1856C82.8368 20.1864 82.9152 20.1389 82.9688 20.0756C83.0223 20.0124 83.0529 19.9293 83.0553 19.844C83.0606 17.6861 83.0537 15.5298 83.0553 13.3717C83.0506 12.269 83.0659 11.1636 83.0495 10.0603C83.0426 9.90597 83.0363 9.73571 82.9976 9.57399C82.9589 9.41226 82.8886 9.25766 82.7496 9.15137H82.7439C82.5465 9.02827 82.2672 9.01621 82.0346 9.05296C82.0328 9.05324 82.0307 9.05267 82.0289 9.05296C81.8735 9.07115 81.7212 9.16181 81.608 9.22663C81.4956 9.31168 81.432 9.40533 81.36 9.51609C81.1182 9.94634 81.1014 10.4602 81.089 10.9345C81.0818 13.8206 81.091 16.7033 81.089 19.5893V19.5951C81.0966 19.676 81.0876 19.7683 81.089 19.8614C81.0904 19.9545 81.1026 20.0488 81.164 20.1277L81.1697 20.1335L81.1755 20.1393C81.3396 20.2237 81.5224 20.1792 81.6829 20.1856C81.6829 20.4847 81.6829 20.7838 81.6829 21.0829C80.4028 21.0829 79.1227 21.0829 77.8427 21.0829C77.8427 20.7838 77.8427 20.4847 77.8427 20.1856C77.9399 20.1853 78.0408 20.1904 78.1425 20.174C78.1444 20.1739 78.1464 20.1742 78.1483 20.174C78.2393 20.1644 78.315 20.1182 78.3616 20.0525C78.4092 19.9854 78.4323 19.8965 78.4366 19.8093C78.4413 14.7502 78.4352 9.68929 78.4366 4.63C78.4362 4.52762 78.4264 4.4099 78.3904 4.3058C78.3545 4.2017 78.2931 4.11339 78.1886 4.07423C77.971 3.99804 77.737 4.04396 77.5255 4.03371C77.5255 3.83953 77.5255 3.64318 77.5255 3.449C77.5255 3.44708 77.5255 3.44513 77.5255 3.44321C77.5308 3.38737 77.5276 3.32692 77.5255 3.26953C77.5237 3.21725 77.5321 3.17176 77.5428 3.14217C78.7251 3.0514 79.9068 2.9529 81.089 2.86429ZM70.9579 2.8064C69.7564 2.89636 68.5553 2.9921 67.3541 3.08428H67.3368L67.3252 3.10165C67.2996 3.14994 67.3057 3.20797 67.3079 3.26953C67.3101 3.3311 67.3131 3.39541 67.3079 3.44321C67.3079 3.64892 67.3079 3.85695 67.3079 4.06266V4.0916H67.3368C67.5984 4.10802 67.8623 4.05789 68.0979 4.13792C68.0997 4.13853 68.1019 4.13729 68.1036 4.13792C68.1829 4.20351 68.2097 4.29502 68.219 4.39843C68.2283 4.50276 68.2186 4.6173 68.2247 4.72263C68.2248 4.72451 68.2246 4.72654 68.2247 4.72842C68.2235 9.74379 68.229 14.7593 68.2247 19.7746V19.7804C68.2276 19.8526 68.2214 19.9346 68.1959 20.0004C68.1705 20.0661 68.1263 20.1127 68.046 20.1219C67.9202 20.1396 67.792 20.1314 67.6597 20.1335H67.6308V20.1625C67.6308 20.4789 67.6308 20.7954 67.6308 21.1119V21.1408H67.6597C69.0801 21.1408 70.5004 21.1408 71.9208 21.1408H71.9497V21.1119C71.9497 20.7935 71.9497 20.4751 71.9497 20.1567V20.1277H71.9208C71.6676 20.1147 71.4147 20.1535 71.177 20.1046C71.0833 20.0769 71.0412 20.0073 71.0156 19.9193C70.9899 19.8313 70.9866 19.7255 70.9867 19.6356C70.9867 14.0348 70.9867 8.43621 70.9867 2.83534V2.8064H70.9579ZM70.9291 2.86429C70.9291 8.45551 70.9291 14.0444 70.9291 19.6356C70.9289 19.7261 70.9289 19.8373 70.9579 19.9367C70.9869 20.036 71.0509 20.1287 71.1655 20.1625C71.4075 20.2123 71.6555 20.1772 71.892 20.1856C71.892 20.4847 71.892 20.7838 71.892 21.0829C70.4908 21.0829 69.0897 21.0829 67.6885 21.0829C67.6885 20.7858 67.6885 20.4886 67.6885 20.1914C67.8087 20.1908 67.9334 20.1973 68.0575 20.1798C68.1591 20.1682 68.2173 20.1024 68.2478 20.0235C68.2783 19.9446 68.2854 19.8511 68.2824 19.7746C68.2867 14.7573 68.2812 9.7399 68.2824 4.72263C68.2759 4.62311 68.2868 4.50668 68.2766 4.39264C68.2665 4.2786 68.2329 4.16448 68.1325 4.08581L68.1267 4.08002C67.8791 3.99356 67.6106 4.04405 67.3656 4.03371C67.3656 3.83953 67.3656 3.64318 67.3656 3.449C67.3656 3.44708 67.3656 3.44513 67.3656 3.44321C67.3709 3.38737 67.3676 3.32692 67.3656 3.26953C67.3637 3.21725 67.3722 3.17176 67.3829 3.14217C68.5651 3.0514 69.7469 2.9529 70.9291 2.86429ZM39.6304 3.08428V3.11322V3.13059C39.6304 3.44128 39.6304 3.75197 39.6304 4.06266V4.0916H39.6593C39.9326 4.10872 40.2048 4.0531 40.455 4.13213C40.55 4.16133 40.6124 4.23414 40.651 4.32896C40.689 4.42209 40.7038 4.53685 40.7145 4.63579C40.7146 4.63771 40.7144 4.63965 40.7145 4.64158C40.7483 5.42136 40.7236 6.20348 40.7318 6.98621C40.7308 11.2196 40.7353 15.4545 40.7318 19.6877C40.7345 19.7769 40.7165 19.8816 40.6741 19.9598C40.6317 20.038 40.5645 20.0906 40.4665 20.0988C40.2071 20.1531 39.9333 20.1151 39.6593 20.1277H39.6304V20.1567C39.6304 20.4751 39.6304 20.7935 39.6304 21.1119V21.1408H39.6593C41.4006 21.1408 43.142 21.1408 44.8834 21.1408H44.9122V21.1119C44.9122 20.7935 44.9122 20.4751 44.9122 20.1567V20.1277H44.8834C44.6028 20.1125 44.3215 20.1582 44.0588 20.093C43.9512 20.0581 43.8868 19.9745 43.8455 19.8672C43.8042 19.7599 43.7836 19.6322 43.7763 19.5199C43.7587 18.5537 43.7754 17.587 43.7705 16.6195C43.7705 15.2802 43.7705 13.941 43.7705 12.6017C44.8969 12.6017 46.0232 12.6017 47.1495 12.6017C47.1473 14.8765 47.1515 17.1528 47.1437 19.4272C47.1437 19.4292 47.1437 19.4311 47.1437 19.433C47.1361 19.55 47.131 19.683 47.0976 19.7977C47.0645 19.9115 47.0022 20.0093 46.9015 20.0698C46.6724 20.1694 46.4069 20.1107 46.1462 20.1277C46.1423 20.128 46.1385 20.1274 46.1347 20.1277C46.0962 20.1187 46.0596 20.1201 46.0366 20.1393C46.011 20.1607 46.0035 20.19 46.002 20.2203C45.9991 20.2811 46.0147 20.3521 46.0078 20.3882V20.394C46.0078 20.6325 46.0078 20.8734 46.0078 21.1119V21.1408H46.0366C47.7703 21.1408 49.504 21.1408 51.2377 21.1408H51.2665V21.1119C51.2665 20.7935 51.2665 20.4751 51.2665 20.1567V20.1277H51.2377C50.966 20.1091 50.6922 20.1716 50.4477 20.0814C50.3334 20.027 50.2741 19.9289 50.2401 19.8093C50.2062 19.6897 50.2036 19.5479 50.1998 19.4272C50.1794 18.5164 50.1938 17.6072 50.1882 16.6947C50.1897 12.7824 50.1831 8.86639 50.1882 4.95419C50.1882 4.95227 50.1882 4.95033 50.1882 4.94841C50.1954 4.81323 50.1956 4.65866 50.2171 4.52C50.2389 4.37948 50.2835 4.25627 50.3843 4.17265C50.6084 4.03695 50.8925 4.11095 51.1627 4.0916C51.1646 4.09146 51.1666 4.09175 51.1685 4.0916C51.1865 4.09395 51.1996 4.09673 51.2146 4.0916C51.2316 4.08583 51.2463 4.07077 51.255 4.05687C51.2724 4.02907 51.2737 3.99691 51.2723 3.96424C51.2708 3.93156 51.2692 3.89663 51.2665 3.86582C51.2638 3.83502 51.262 3.81082 51.2665 3.79635V3.79056V3.78477C51.2665 3.56054 51.2665 3.33746 51.2665 3.11322V3.08428H51.2377C49.504 3.08428 47.7703 3.08428 46.0366 3.08428H46.0078V3.11322C46.0078 3.4297 46.0078 3.74618 46.0078 4.06266V4.0916H46.0366C46.3138 4.10719 46.5911 4.06057 46.8497 4.12634C46.9578 4.15705 47.0244 4.23471 47.0688 4.34054C47.1131 4.44637 47.1306 4.5764 47.138 4.68789C47.1607 5.36076 47.1432 6.03293 47.1495 6.70833C47.1495 8.28223 47.1495 9.85843 47.1495 11.4323C46.0232 11.4323 44.8969 11.4323 43.7705 11.4323C43.7726 9.21927 43.7689 7.00484 43.7763 4.7921C43.7763 4.79017 43.7763 4.78824 43.7763 4.78631C43.789 4.56501 43.8006 4.30317 43.9608 4.17265C44.1852 4.03722 44.4688 4.10983 44.7392 4.0916C44.7431 4.09134 44.747 4.09189 44.7508 4.0916C44.7886 4.1018 44.8221 4.10671 44.8488 4.09739C44.8786 4.08698 44.8973 4.06039 44.9065 4.03371C44.9248 3.98034 44.9153 3.91866 44.9122 3.86003C44.9122 3.6111 44.9122 3.36216 44.9122 3.11322V3.08428H44.8834C43.142 3.08428 41.4006 3.08428 39.6593 3.08428H39.6304ZM39.6881 3.14217C41.4103 3.14217 43.1324 3.14217 44.8546 3.14217C44.8546 3.38146 44.8546 3.62075 44.8546 3.86003C44.8578 3.92088 44.8593 3.98561 44.8488 4.01634C44.8435 4.03171 44.8377 4.03533 44.8257 4.0395C44.8138 4.04367 44.794 4.04533 44.7565 4.03371H44.7508H44.745C44.486 4.05368 44.1801 3.97308 43.9262 4.12634C43.737 4.28044 43.7256 4.56474 43.7129 4.78631C43.7054 7.01087 43.715 9.23679 43.7129 11.4613V11.4902H43.7417C44.8872 11.4902 46.0328 11.4902 47.1783 11.4902H47.2072V11.4613C47.2072 9.87773 47.2072 8.29187 47.2072 6.70833C47.2008 6.03442 47.2185 5.36322 47.1956 4.68789V4.6821C47.1881 4.56709 47.1693 4.4333 47.1207 4.31738C47.0721 4.20147 46.9957 4.10499 46.867 4.06844H46.8612C46.596 4.001 46.3249 4.04403 46.0655 4.03371C46.0655 3.73653 46.0655 3.43935 46.0655 3.14217C47.7799 3.14217 49.4944 3.14217 51.2089 3.14217C51.2089 3.35481 51.2089 3.56635 51.2089 3.77898C51.2089 3.78092 51.2089 3.78284 51.2089 3.78477C51.2014 3.81315 51.2004 3.84056 51.2031 3.87161C51.206 3.90472 51.2133 3.94168 51.2146 3.97003C51.2159 3.99838 51.2139 4.01994 51.2089 4.02792C51.2064 4.03191 51.2021 4.0321 51.1973 4.03371C51.1926 4.03532 51.1827 4.03611 51.1685 4.03371H51.1627C50.9055 4.0534 50.6018 3.97372 50.3497 4.12634C50.2335 4.22274 50.1823 4.36654 50.1594 4.51421C50.1365 4.66189 50.1379 4.81522 50.1306 4.94841C50.1254 8.86263 50.1321 12.7805 50.1306 16.6947C50.1361 17.6062 50.1159 18.5206 50.1364 19.433C50.1402 19.554 50.1458 19.6916 50.1825 19.8209C50.2192 19.9502 50.2921 20.0705 50.4247 20.1335C50.6807 20.228 50.9568 20.1738 51.2089 20.1856C51.2089 20.4847 51.2089 20.7838 51.2089 21.0829C49.4944 21.0829 47.7799 21.0829 46.0655 21.0829C46.0655 20.856 46.0655 20.6268 46.0655 20.3998C46.0658 20.3979 46.0651 20.396 46.0655 20.394C46.0745 20.3364 46.0575 20.2717 46.0597 20.2261C46.0608 20.2025 46.0719 20.1899 46.077 20.1856C46.0821 20.1813 46.0935 20.1751 46.1289 20.1856H46.1347H46.1404C46.3916 20.1668 46.6689 20.2389 46.9246 20.1277L46.9304 20.1219C47.052 20.0525 47.113 19.9404 47.1495 19.8151C47.186 19.6898 47.1995 19.5515 47.2072 19.433C47.215 17.1467 47.2049 14.859 47.2072 12.5728V12.5439H47.1783C46.0328 12.5439 44.8872 12.5439 43.7417 12.5439H43.7129V12.5728C43.7129 13.9217 43.7129 15.2706 43.7129 16.6195C43.7178 17.5862 43.701 18.5523 43.7186 19.5199V19.5256C43.7261 19.6405 43.7427 19.7731 43.7878 19.8904C43.833 20.0076 43.908 20.1095 44.0358 20.1509H44.0415C44.3122 20.2198 44.5896 20.1754 44.8546 20.1856C44.8546 20.4847 44.8546 20.7838 44.8546 21.0829C43.1324 21.0829 41.4103 21.0829 39.6881 21.0829C39.6881 20.7838 39.6881 20.4847 39.6881 20.1856C39.9439 20.1773 40.2108 20.2101 40.4723 20.1567C40.4754 20.1564 40.475 20.1512 40.4781 20.1509C40.5915 20.1381 40.6781 20.0771 40.726 19.9888C40.7752 19.8981 40.7925 19.7858 40.7894 19.6877C40.793 15.4544 40.7884 11.2196 40.7894 6.98621C40.7813 6.20327 40.8065 5.42052 40.7721 4.63579C40.7613 4.53379 40.7455 4.41026 40.7029 4.3058C40.6604 4.20134 40.5876 4.1097 40.4723 4.07423C40.2128 3.99228 39.9426 4.04471 39.6881 4.03371C39.6881 3.73653 39.6881 3.43935 39.6881 3.14217ZM2.80786 3.09586V3.13059V4.04529V4.07423H2.84246H3.20573C3.42257 4.07423 3.59649 4.20154 3.71891 4.43895C3.84134 4.67637 3.90919 5.02515 3.90919 5.44628V18.7557C3.9092 19.1658 3.84158 19.5166 3.71891 19.763C3.59624 20.0094 3.42159 20.1451 3.20573 20.1451H2.84246H2.80786V20.174V21.0945V21.1235H2.84246H6.40593H6.43476V21.0945V20.174V20.1451H6.40593H5.85815C5.61825 20.1451 5.44458 20.0091 5.32767 19.763C5.21075 19.5169 5.15468 19.1663 5.15468 18.7557V7.54197L7.97432 21.0772L7.98009 21.1003H8.00315H9.3755H9.39856L9.40433 21.0772L12.224 7.5246V18.9815C12.224 19.3932 12.1904 19.6916 12.1029 19.8788C12.0153 20.066 11.8854 20.1451 11.6647 20.1451H11.0246H10.99V20.174V21.0945V21.1235H11.0246H16.1622H16.1911V21.0945V20.174V20.1451H16.1622H15.7759C15.5551 20.1451 15.4196 20.066 15.3319 19.8788C15.2442 19.6916 15.2108 19.3932 15.2108 18.9815V5.23787C15.2108 4.82648 15.2442 4.53335 15.3319 4.34633C15.4196 4.1593 15.5551 4.07423 15.7759 4.07423H16.1622H16.1911V4.04529V3.13059V3.09586H16.1622H11.8665H11.8434L11.8376 3.1248L9.62921 14.3154L7.28239 3.11901L7.27662 3.09586H7.25356H2.84246H2.80786ZM2.87129 3.15954H7.23049L9.60038 14.4717L9.65804 14.4659V14.4543L11.8895 3.15954H16.1334V4.01634H15.7759C15.5395 4.01634 15.3752 4.11449 15.28 4.31738C15.1849 4.52027 15.1532 4.8232 15.1532 5.23787V18.9815C15.1532 19.3965 15.1849 19.6989 15.28 19.9019C15.3752 20.105 15.5395 20.2088 15.7759 20.2088H16.1334V21.0656H11.0534V20.2088H11.6647C11.9011 20.2088 12.0598 20.105 12.1548 19.9019C12.2497 19.6989 12.2874 19.3965 12.2874 18.9815V7.21778V7.21199H12.2586L12.2297 7.2062V7.21199H12.224V7.23514L9.35243 21.0424H8.02622L5.15468 7.2583V7.25251L5.12585 7.2583H5.09702V7.26409V18.7557C5.09702 19.1718 5.15273 19.5272 5.27577 19.7862C5.39881 20.0451 5.59506 20.2088 5.85815 20.2088H6.3771V21.0656H2.87129V20.2088H3.20573C3.44709 20.2088 3.64208 20.0448 3.77081 19.7862C3.89954 19.5275 3.96686 19.1724 3.96686 18.7557V5.44628C3.96686 5.01876 3.89979 4.66593 3.77081 4.4158C3.64183 4.16567 3.44611 4.01634 3.20573 4.01634H2.87129V3.15954ZM74.3887 3.99897L74.3772 4.01634L74.3714 4.02792C74.0661 4.92936 73.7724 5.8467 73.3162 6.67938C73.1675 6.92721 73.006 7.17231 72.7858 7.33356C72.5214 7.5512 72.1598 7.56544 71.8228 7.55355C71.8209 7.55348 71.8189 7.55362 71.817 7.55355C71.7756 7.54417 71.741 7.54761 71.719 7.57092C71.6958 7.59556 71.6903 7.63164 71.6902 7.66355C71.6901 7.69546 71.6933 7.72515 71.696 7.75617C71.6986 7.7872 71.7001 7.81494 71.696 7.83143V7.83722V7.84301C71.696 8.09851 71.696 8.35169 71.696 8.60719V8.63613H71.7248C72.0208 8.63613 72.3168 8.63613 72.6128 8.63613C72.6147 12.0247 72.6061 15.4134 72.6128 18.802C72.6402 19.4024 72.666 20.0439 72.976 20.5851H72.9818C73.1897 20.8959 73.5017 21.1367 73.8698 21.2277C74.4321 21.3915 75.024 21.3897 75.5996 21.3435H75.6054C76.1096 21.2798 76.623 21.0841 76.9489 20.6719C77.2406 20.3231 77.3782 19.8655 77.439 19.4214C77.5125 18.7791 77.4669 18.1332 77.4794 17.4936C77.4794 17.2513 77.4794 17.0066 77.4794 16.7642V16.7352H77.4506C77.1123 16.7352 76.774 16.7352 76.4357 16.7352H76.4069V16.7642C76.401 17.6013 76.419 18.436 76.3954 19.2709C76.3832 19.3966 76.3729 19.5347 76.3377 19.6588C76.3032 19.7801 76.2426 19.8879 76.1359 19.954C76.0286 20.0108 75.8857 20.0323 75.7611 20.0061C75.6365 19.98 75.5313 19.9114 75.4785 19.7919C75.329 19.4092 75.3901 18.9807 75.3748 18.5646C75.3748 15.2629 75.3748 11.9611 75.3748 8.65929C76.0513 8.65929 76.7279 8.65929 77.4044 8.65929H77.4333V8.63034C77.4333 8.28106 77.4333 7.93178 77.4333 7.5825V7.55355H77.4044C76.7356 7.55355 76.0667 7.55355 75.3978 7.55355C75.3978 6.37834 75.3978 5.20313 75.3978 4.02792V3.99897H75.369C75.048 3.99897 74.727 3.99897 74.406 3.99897H74.3887ZM74.4291 4.05687C74.7328 4.05687 75.0365 4.05687 75.3402 4.05687C75.3402 5.23208 75.3402 6.40729 75.3402 7.5825V7.61144H75.369C76.0379 7.61144 76.7067 7.61144 77.3756 7.61144C77.3756 7.94143 77.3756 8.27141 77.3756 8.6014C76.699 8.6014 76.0225 8.6014 75.3459 8.6014H75.3171V8.63034C75.3171 11.9418 75.3171 15.2532 75.3171 18.5646C75.3322 18.973 75.2639 19.4133 75.4209 19.8151C75.4823 19.9543 75.6109 20.035 75.7496 20.064C75.8882 20.0931 76.038 20.0759 76.1589 20.0119V20.0061H76.1647C76.2923 19.9307 76.3577 19.8087 76.3954 19.6762C76.433 19.5437 76.441 19.4011 76.453 19.2767C76.4765 18.4494 76.4593 17.6195 76.4646 16.7931C76.7836 16.7931 77.1027 16.7931 77.4217 16.7931C77.4217 17.0259 77.4217 17.2609 77.4217 17.4936C77.4092 18.1368 77.454 18.7747 77.3814 19.4099C77.3214 19.8474 77.184 20.301 76.9028 20.6372C76.5912 21.0312 76.0922 21.2224 75.5996 21.2856C75.5978 21.2858 75.5957 21.2853 75.5939 21.2856C75.0234 21.3311 74.437 21.33 73.8871 21.1698H73.8813C73.5287 21.0826 73.2281 20.8555 73.0279 20.5561C72.7272 20.0313 72.7036 19.4025 72.6762 18.802C72.6695 15.4039 72.6724 12.0055 72.6704 8.60719V8.57824H72.6416C72.3456 8.57824 72.0496 8.57824 71.7536 8.57824C71.7536 8.33436 71.7536 8.09269 71.7536 7.8488C71.7536 7.84686 71.7536 7.84495 71.7536 7.84301C71.7596 7.8144 71.7562 7.78109 71.7536 7.75038C71.7509 7.71776 71.7478 7.68972 71.7479 7.66355C71.7479 7.63737 71.7544 7.61674 71.7594 7.61144C71.7644 7.60614 71.777 7.60241 71.8113 7.61144H71.817C72.1585 7.62379 72.5351 7.61465 72.8204 7.37987C73.0528 7.20969 73.2131 6.95715 73.3624 6.70833V6.70254C73.8212 5.86499 74.1246 4.9562 74.4291 4.05687ZM29.0092 7.33356C28.4079 7.37507 27.824 7.64343 27.4005 8.06879C27.1755 8.28528 26.9767 8.52212 26.8065 8.78665C26.8065 8.33316 26.8065 7.87968 26.8065 7.42619V7.39724H26.7777C25.5839 7.4774 24.3905 7.56604 23.1969 7.64618H23.1681V7.67512C23.1681 7.99353 23.1681 8.31194 23.1681 8.63034V8.65929H23.1969C23.4305 8.6763 23.6631 8.62245 23.8716 8.69403C23.9569 8.72861 24.0074 8.80247 24.0388 8.89665C24.0701 8.99083 24.0784 9.10186 24.0792 9.19769C24.0872 11.9145 24.0826 14.6318 24.0849 17.3489C24.08 18.169 24.097 18.9908 24.0792 19.8093C24.0751 19.8871 24.0491 19.9622 24.01 20.0177C23.9708 20.0732 23.92 20.1098 23.8427 20.1161H23.837C23.6346 20.1401 23.4298 20.1218 23.22 20.1277H23.1912V20.1567C23.1912 20.4751 23.1912 20.7935 23.1912 21.1119V21.1408H23.22C24.6193 21.1408 26.0185 21.1408 27.4178 21.1408H27.4466V21.1119C27.4466 20.7935 27.4466 20.4751 27.4466 20.1567V20.1277H27.4178C27.2386 20.1133 27.0586 20.151 26.9103 20.0814C26.8635 20.0057 26.8479 19.9172 26.8469 19.8209C26.8458 19.7225 26.8545 19.6195 26.8469 19.5199C26.8468 19.5179 26.8471 19.516 26.8469 19.5141C26.8489 16.6546 26.8455 13.7937 26.8527 10.9345C26.8694 10.4606 26.8764 9.95631 27.1121 9.54504C27.1682 9.4476 27.2573 9.33599 27.3428 9.27874C27.6243 9.08135 28.006 9.0446 28.3288 9.15716C28.4332 9.19647 28.5099 9.28252 28.5652 9.38873C28.6205 9.49494 28.6555 9.61965 28.669 9.73608C28.7246 10.2823 28.6866 10.8382 28.6978 11.3918C28.6963 14.2107 28.6974 17.0255 28.6921 19.844H28.6978C28.6924 19.923 28.6638 19.9916 28.6229 20.0409C28.5819 20.0901 28.5287 20.1184 28.4499 20.1219C28.3241 20.1293 28.1933 20.1255 28.0636 20.1277H28.0347V20.1567C28.0347 20.4751 28.0347 20.7935 28.0347 21.1119V21.1408H28.0636C29.3936 21.1408 30.7237 21.1408 32.0537 21.1408H32.0826V21.1119C32.0826 20.7935 32.0826 20.4751 32.0826 20.1567V20.1277H32.0537C31.956 20.1198 31.8501 20.1326 31.7539 20.1277C31.6605 20.123 31.5826 20.1039 31.5232 20.0351C31.5225 20.0333 31.524 20.0311 31.5232 20.0293C31.4318 19.8134 31.4813 19.5581 31.4656 19.3114C31.4655 19.3095 31.4657 19.3076 31.4656 19.3057C31.4636 16.1016 31.4725 12.8938 31.4656 9.68977C31.4379 9.13056 31.3535 8.5306 31.0101 8.063C30.6765 7.5857 30.0837 7.37144 29.5224 7.33935C29.3501 7.32087 29.181 7.32356 29.0092 7.33356ZM29.0092 7.39145C29.1788 7.38158 29.3486 7.37921 29.5166 7.39724L29.5224 7.40303C30.0711 7.4344 30.6445 7.64063 30.9639 8.09774V8.10353C31.2958 8.55531 31.3746 9.13425 31.4022 9.68977C31.409 12.8956 31.406 16.1054 31.4079 19.3114C31.4242 19.5495 31.3602 19.8166 31.4656 20.0583L31.4714 20.064C31.5447 20.1546 31.6503 20.1804 31.7539 20.1856C31.8475 20.1903 31.942 20.1824 32.0249 20.1856C32.0249 20.4847 32.0249 20.7838 32.0249 21.0829C30.7141 21.0829 29.4032 21.0829 28.0924 21.0829C28.0924 20.7838 28.0924 20.4847 28.0924 20.1856C28.2103 20.1847 28.3295 20.1927 28.4499 20.1856C28.5433 20.1814 28.6181 20.1367 28.669 20.0756C28.7199 20.0145 28.7494 19.9385 28.7555 19.8498V19.844C28.7608 17.0254 28.754 14.2048 28.7555 11.386C28.7444 10.8359 28.7829 10.2832 28.7267 9.7303C28.7124 9.6081 28.677 9.47465 28.6171 9.35979C28.5573 9.24492 28.4734 9.14503 28.3519 9.09927C28.0115 8.98059 27.6072 9.02275 27.3082 9.23242C27.2088 9.29904 27.1251 9.41345 27.066 9.51609C26.8204 9.94457 26.806 10.4612 26.7892 10.9345C26.7821 13.7959 26.7913 16.6585 26.7892 19.5199C26.797 19.6132 26.7881 19.7159 26.7892 19.8209C26.7904 19.9259 26.8028 20.0358 26.8642 20.1277L26.87 20.1335L26.8757 20.1393C27.0418 20.2242 27.2265 20.179 27.3889 20.1856C27.3889 20.4847 27.3889 20.7838 27.3889 21.0829C26.0089 21.0829 24.6289 21.0829 23.2488 21.0829C23.2488 20.7838 23.2488 20.4847 23.2488 20.1856C23.445 20.1821 23.6477 20.1978 23.8485 20.174C23.9426 20.1664 24.0144 20.1197 24.0619 20.0525C24.1093 19.9852 24.1323 19.8961 24.1368 19.8093C24.1547 18.9893 24.1376 18.1681 24.1426 17.3489C24.1403 14.6319 24.1507 11.9147 24.1426 9.19769C24.1418 9.09844 24.131 8.98319 24.0965 8.87928C24.0619 8.77538 24 8.68463 23.8946 8.64192C23.675 8.56654 23.4395 8.61142 23.2258 8.6014C23.2258 8.30229 23.2258 8.00318 23.2258 7.70407C24.4005 7.62506 25.5745 7.53413 26.7489 7.45513C26.7489 7.92599 26.7489 8.39685 26.7489 8.8677V8.97191L26.8008 8.88507C26.9743 8.59676 27.198 8.34879 27.4408 8.1151C27.8542 7.69998 28.4229 7.43193 29.0092 7.39145ZM62.3721 7.33356C61.6068 7.36003 60.8287 7.58211 60.2156 8.05721C59.9315 8.31405 59.651 8.60785 59.5179 8.98349H59.5236C59.2533 9.6409 59.3973 10.4165 59.7946 10.9866C59.9741 11.2187 60.2145 11.4211 60.5154 11.4844C60.9411 11.5881 61.3973 11.4094 61.6859 11.0965C61.9996 10.7954 62.0837 10.2932 61.8935 9.89818C61.7344 9.53554 61.4247 9.27259 61.1151 9.05296V9.04717C60.9794 8.95242 60.835 8.86892 60.6884 8.79244C60.9698 8.59931 61.3229 8.52656 61.6629 8.46825C61.6648 8.46811 61.6668 8.46838 61.6686 8.46825C62.0585 8.44038 62.4746 8.42898 62.8219 8.60719C62.9612 8.68974 63.0657 8.79828 63.1159 8.96033C63.2612 9.43822 63.1917 9.95583 63.2082 10.4597C63.2082 11.1185 63.2082 11.7751 63.2082 12.4339C62.3437 12.7333 61.4686 13.0305 60.6653 13.4817C60.0872 13.8158 59.5682 14.2825 59.2642 14.8885C58.9315 15.5759 58.83 16.3423 58.7913 17.0942C58.7504 18.0072 58.7682 18.9521 59.0566 19.8325C59.2007 20.2393 59.4198 20.6261 59.7543 20.9093C60.1613 21.2754 60.736 21.4033 61.2708 21.3666C61.8886 21.3352 62.4924 21.056 62.9026 20.5909C63.1258 20.3523 63.3123 20.0817 63.4677 19.7919C63.5733 20.2343 63.6929 20.7163 64.0731 21.0135C64.4345 21.3221 64.9394 21.3611 65.3878 21.3724C65.9009 21.37 66.4839 21.2784 66.8466 20.8687C67.145 20.5625 67.2604 20.1276 67.3368 19.7225C67.4026 19.3045 67.4153 18.881 67.4175 18.4604V18.4315H67.3886C67.1023 18.4315 66.8159 18.4315 66.5295 18.4315H66.5007V18.4604C66.495 18.8842 66.5158 19.3094 66.443 19.7225C66.424 19.8486 66.317 19.9417 66.1893 19.9251H66.1835C66.1205 19.9353 66.0783 19.9094 66.0451 19.8672C66.0119 19.825 65.9905 19.7635 65.9932 19.7051C65.957 19.0794 65.9847 18.4476 65.9759 17.8178C65.9733 15.4038 65.9794 12.9897 65.9702 10.5755C65.9562 9.79855 65.8116 8.9793 65.3244 8.34667C65.0787 8.05239 64.7764 7.79851 64.4191 7.64618C63.7788 7.36233 63.0598 7.30914 62.3721 7.33356ZM62.3721 7.39145C63.0552 7.3672 63.768 7.42566 64.396 7.70407C64.7431 7.85203 65.0374 8.09292 65.2782 8.38141C65.7539 8.99899 65.8987 9.8053 65.9125 10.5755C65.9217 12.9894 65.9157 15.4037 65.9183 17.8178C65.927 18.4453 65.8991 19.0754 65.9356 19.7051C65.9322 19.7772 65.9495 19.8522 65.9932 19.9077C66.0343 19.96 66.1069 19.9844 66.1835 19.9772C66.1884 19.9767 66.1901 19.9838 66.1951 19.983C66.1956 19.983 66.1945 19.9772 66.1951 19.9772C66.3484 19.9896 66.4781 19.8838 66.5007 19.7341C66.5734 19.3218 66.554 18.9013 66.5583 18.4894C66.8255 18.4894 67.0927 18.4894 67.3598 18.4894C67.3572 18.8992 67.3427 19.3073 67.2791 19.7109C67.2034 20.1127 67.0903 20.5366 66.8063 20.8282H66.8005C66.4558 21.2176 65.8941 21.3121 65.3878 21.3145C64.9418 21.3032 64.4561 21.2597 64.1135 20.9672C63.7358 20.6719 63.6175 20.1759 63.508 19.7167L63.4907 19.6356L63.4504 19.7109C63.2922 20.0202 63.0921 20.3043 62.8565 20.5561C62.4577 21.0084 61.8674 21.2781 61.265 21.3087C60.7424 21.3446 60.1803 21.215 59.7889 20.863C59.4652 20.5889 59.2562 20.2099 59.1142 19.8093C58.8296 18.9402 58.8082 18.0104 58.849 17.1C58.8874 16.3514 58.9947 15.5877 59.3218 14.9116C59.6193 14.3187 60.1235 13.8636 60.6942 13.5338C61.4962 13.0832 62.3781 12.7876 63.2486 12.486L63.2659 12.4802V12.457C63.2659 11.7905 63.2659 11.1263 63.2659 10.4597V10.4539C63.2496 9.95676 63.318 9.43689 63.1678 8.94296C63.113 8.76625 62.999 8.64876 62.8507 8.56087V8.55508C62.4841 8.36697 62.0563 8.38203 61.6629 8.41035H61.6571C61.298 8.47192 60.9115 8.54001 60.6077 8.76929L60.5673 8.79823L60.6134 8.82139C60.7764 8.90328 60.9309 8.99483 61.0805 9.09927C61.3869 9.31664 61.6896 9.57497 61.8416 9.92134C62.0202 10.2921 61.9392 10.774 61.6456 11.056H61.6398C61.3647 11.3542 60.9282 11.5242 60.5269 11.4265C60.2444 11.3671 60.0147 11.1767 59.8408 10.9518C59.454 10.3969 59.3143 9.64192 59.5755 9.00664C59.7033 8.64613 59.9686 8.35806 60.2502 8.10353C60.8513 7.63775 61.6168 7.41757 62.3721 7.39145ZM54.7666 7.33356C53.982 7.38219 53.2323 7.76576 52.7138 8.35246C52.2008 8.88186 51.8642 9.55401 51.6125 10.2397C51.1298 11.5948 51.004 13.0447 50.9955 14.4717C51.0133 15.8024 51.0872 17.1566 51.4683 18.4431C51.6528 19.0447 51.9028 19.631 52.2871 20.1335C52.589 20.5062 52.9594 20.837 53.4 21.0424C54.0916 21.3761 54.8831 21.417 55.6315 21.3377C56.2429 21.2715 56.892 21.0926 57.3325 20.6314C57.4902 20.4765 57.6099 20.3269 57.7188 20.1277C58.0757 19.4702 58.1508 18.7054 58.1686 17.9741C58.1704 17.6005 58.1568 17.2292 58.1282 16.8568V16.8279H58.0994C57.7688 16.8279 57.4382 16.8279 57.1076 16.8279H57.0788V16.8568C57.0899 17.5666 57.0951 18.2853 56.9635 18.9815C56.9034 19.2877 56.7925 19.604 56.5714 19.8035C56.2347 20.0755 55.7639 20.0435 55.3432 20.0235C55.0452 19.9999 54.7451 19.9032 54.5475 19.6762C54.4612 19.5658 54.3614 19.3968 54.311 19.2362C54.0843 18.5693 54.0693 17.8557 54.0285 17.1521C53.9947 16.1109 53.9914 15.068 53.9939 14.0259C55.4393 14.0259 56.8847 14.0259 58.33 14.0259H58.3589V13.9969C58.3501 12.5649 58.3082 11.1141 57.9379 9.71872V9.71293C57.7641 9.16151 57.5528 8.59673 57.148 8.16721C56.7694 7.72569 56.2193 7.46221 55.6488 7.37987C55.3571 7.32876 55.0599 7.32261 54.7666 7.33356ZM54.7666 7.39145C55.0577 7.38059 55.3574 7.38771 55.643 7.43777C56.2011 7.5183 56.734 7.77866 57.1019 8.20773C57.4947 8.62461 57.7074 9.18273 57.8803 9.7303C57.8808 9.73212 57.8798 9.73426 57.8803 9.73608C58.2444 11.1117 58.292 12.5482 58.3012 13.968C56.8558 13.968 55.4105 13.968 53.9651 13.968H53.9362V13.9969C53.9336 15.0489 53.9366 16.1001 53.9708 17.1521C54.0115 17.8541 54.0228 18.581 54.2534 19.2593C54.3071 19.4305 54.4113 19.5958 54.5013 19.7109C54.7128 19.9538 55.0294 20.0628 55.3374 20.0872H55.3432C55.763 20.1071 56.247 20.1398 56.606 19.8498C56.8427 19.6362 56.9599 19.3056 57.0211 18.993V18.9872C57.1524 18.2929 57.1473 17.5863 57.1364 16.8858C57.4478 16.8858 57.7592 16.8858 58.0706 16.8858C58.0975 17.2471 58.1127 17.6118 58.1109 17.9741C58.0932 18.7022 58.0163 19.455 57.6669 20.0988C57.5605 20.2932 57.4466 20.4391 57.2921 20.5909H57.2864C56.8606 21.0367 56.2303 21.2143 55.6257 21.2798C54.8837 21.3584 54.1062 21.3171 53.4288 20.9903H53.4231C52.993 20.7898 52.631 20.4663 52.3333 20.0988C51.9549 19.6041 51.7092 19.0233 51.526 18.4257C51.1475 17.1481 51.0709 15.8008 51.0532 14.4717C51.0617 13.048 51.1909 11.6085 51.6701 10.2629C51.9203 9.58133 52.2497 8.9136 52.7542 8.39299H52.7599C53.2682 7.81786 53.9987 7.43904 54.7666 7.39145ZM35.8075 7.32777C35.6773 7.32819 35.5429 7.32401 35.4096 7.33935C35.4077 7.33957 35.4058 7.33912 35.4039 7.33935C34.6424 7.39376 33.8799 7.72197 33.3915 8.32352C32.9252 8.86465 32.7099 9.59179 32.6707 10.2976C32.6391 11.0409 32.6894 11.8023 32.9475 12.5091C33.1866 13.1848 33.6146 13.7758 34.0661 14.3154C34.6875 15.0584 35.3447 15.7664 35.9632 16.5095C36.0983 16.703 36.2749 16.9066 36.4014 17.1173L36.4072 17.1231C36.7518 17.6184 36.9209 18.2268 36.8858 18.8309C36.8707 19.1688 36.8299 19.5241 36.632 19.7977C36.5226 19.9445 36.3187 20.072 36.1246 20.1161C35.8272 20.1951 35.5045 20.1939 35.202 20.1335C34.9307 20.0664 34.7076 19.9231 34.5332 19.7051C34.4149 19.5317 34.2927 19.3145 34.2218 19.103C33.9675 18.3869 33.9096 17.6203 33.7836 16.8684V16.8568L33.7663 16.8452C33.7182 16.8196 33.6604 16.8257 33.5991 16.8279C33.5377 16.8301 33.4737 16.8331 33.4261 16.8279C33.1885 16.8279 32.9486 16.8279 32.7111 16.8279H32.6822V16.8568C32.6822 18.2752 32.6822 19.6935 32.6822 21.1119V21.1408H32.7111C33.0051 21.1408 33.2992 21.1408 33.5933 21.1408H33.6164L33.6221 21.1177C33.6766 20.8654 33.7552 20.5939 33.9508 20.4288C33.9771 20.4074 33.9942 20.4039 34.0142 20.4056C34.0342 20.4073 34.0609 20.4176 34.0834 20.4345C34.1283 20.4685 34.1712 20.5265 34.216 20.5677C34.7157 21.0886 35.4426 21.3656 36.1592 21.3724C36.8735 21.3828 37.6152 21.2048 38.1831 20.7472C38.5 20.4822 38.7735 20.1531 38.9443 19.7688C39.3403 18.9458 39.3596 18.004 39.2672 17.1173C39.1851 16.3031 38.8755 15.5253 38.408 14.8595C38.0794 14.3879 37.6991 13.9611 37.324 13.528C36.8702 13.0147 36.3925 12.525 35.9632 11.9939C35.8223 11.7961 35.6464 11.5795 35.5134 11.3629C35.2037 10.8751 35.0638 10.2854 35.0867 9.70714C35.0889 9.42735 35.1491 9.11997 35.3058 8.90823C35.5383 8.61853 35.9634 8.56544 36.3322 8.59561C36.6139 8.60657 36.8981 8.6873 37.1106 8.87349C37.1814 8.92051 37.2495 9.01455 37.3009 9.09927C37.5596 9.49504 37.6132 9.99002 37.67 10.4597C37.7131 10.8146 37.7632 11.1706 37.8026 11.525V11.5481H37.8314C38.1793 11.5481 38.5272 11.5481 38.8751 11.5481H38.9039V11.5192C38.9039 10.2069 38.9039 8.89472 38.9039 7.5825V7.55355H38.8751C38.5887 7.55355 38.3023 7.55355 38.0159 7.55355H37.9929L37.9871 7.57671C37.9584 7.80142 37.9728 8.03833 37.8948 8.23668C37.8855 8.25533 37.8863 8.25411 37.8833 8.25405C37.8803 8.25398 37.8688 8.24867 37.8545 8.23668C37.8402 8.22469 37.8244 8.20671 37.8083 8.19036C37.7942 8.17593 37.7786 8.16019 37.7622 8.14984C37.7602 8.14809 37.7584 8.14579 37.7564 8.14405C37.2211 7.67657 36.5277 7.35814 35.8075 7.32777ZM35.8075 7.38566C36.5146 7.41548 37.1946 7.73365 37.7218 8.19615H37.7276C37.7344 8.19984 37.7469 8.21527 37.7622 8.23089C37.7776 8.2465 37.7957 8.26756 37.8141 8.28299C37.8325 8.29843 37.856 8.31137 37.8833 8.31194C37.9106 8.31251 37.9376 8.28959 37.9525 8.25984C38.0342 8.05197 38.0152 7.82186 38.039 7.61144C38.3081 7.61144 38.5772 7.61144 38.8462 7.61144C38.8462 8.90437 38.8462 10.1973 38.8462 11.4902C38.5157 11.4902 38.1851 11.4902 37.8545 11.4902C37.8154 11.1428 37.7697 10.8004 37.7276 10.4539C37.6709 9.98483 37.6218 9.48172 37.3528 9.07032C37.2996 8.98275 37.2306 8.88394 37.1452 8.82718C36.9194 8.62934 36.6231 8.54904 36.3322 8.53772C35.9544 8.50681 35.5117 8.55943 35.2597 8.87349C35.0911 9.10128 35.0313 9.41934 35.0291 9.70714C35.0057 10.2964 35.1446 10.8926 35.4615 11.3918C35.5976 11.6134 35.778 11.8334 35.917 12.0286C36.3486 12.5624 36.8252 13.0566 37.2779 13.5685C37.6534 14.0021 38.0302 14.4265 38.3561 14.8943C38.8182 15.5524 39.1286 16.32 39.2095 17.1231C39.3014 18.0046 39.2811 18.938 38.8924 19.7456C38.7261 20.1198 38.4599 20.4405 38.1485 20.7009C37.5945 21.1473 36.8633 21.3189 36.1592 21.3087C35.4573 21.3021 34.7434 21.0349 34.2564 20.5272V20.5214C34.2186 20.4867 34.1732 20.43 34.118 20.3882C34.0904 20.3674 34.0555 20.3508 34.02 20.3477C33.9845 20.3446 33.9458 20.3537 33.9104 20.3824C33.703 20.5576 33.6251 20.8338 33.5702 21.0829C33.2935 21.0829 33.0167 21.0829 32.7399 21.0829C32.7399 19.6839 32.7399 18.2848 32.7399 16.8858C32.966 16.8858 33.1942 16.8858 33.4203 16.8858C33.4222 16.8858 33.4242 16.8858 33.4261 16.8858C33.4817 16.8911 33.5419 16.8878 33.5991 16.8858C33.6535 16.8838 33.7026 16.8911 33.7317 16.9031C33.8544 17.644 33.909 18.4077 34.1641 19.1262C34.2378 19.346 34.3668 19.5636 34.487 19.7398C34.669 19.9672 34.9018 20.1214 35.1847 20.1914H35.1905C35.5004 20.2533 35.8282 20.2557 36.1362 20.174C36.3451 20.1265 36.5578 19.9939 36.6782 19.8325C36.8878 19.5426 36.9282 19.1776 36.9434 18.8367C36.9793 18.219 36.8057 17.5948 36.4533 17.0884C36.3229 16.8711 36.1416 16.6642 36.0093 16.4747C35.3895 15.7302 34.7324 15.0164 34.1122 14.2748C33.6626 13.7375 33.2405 13.151 33.0051 12.486C32.7509 11.7896 32.697 11.0364 32.7284 10.2976C32.767 9.60164 32.9824 8.8923 33.4376 8.36404C33.915 7.77611 34.6604 7.44943 35.4096 7.39724H35.4154C35.5446 7.3818 35.6739 7.3861 35.8075 7.38566ZM19.916 7.34514C18.7971 7.34514 17.8059 7.94275 17.0964 9.12822C16.3869 10.3137 15.9547 12.0815 15.9547 14.4369C15.9548 17.0216 16.3511 18.7491 17.0445 19.8325C17.7378 20.9159 18.7317 21.355 19.916 21.355C21.0405 21.355 21.8972 21.1092 22.4358 20.423C22.9744 19.7367 23.1901 18.6158 23.0528 16.8684V16.8452H23.024H22.0668H22.0322L22.0379 16.8742C22.0725 18.3412 21.9664 19.1406 21.7266 19.5662C21.6067 19.7789 21.4546 19.896 21.2653 19.9656C21.076 20.0353 20.8462 20.0525 20.5791 20.0525C20.1874 20.0525 19.8933 20.0043 19.6681 19.8556C19.4428 19.707 19.2839 19.4601 19.1722 19.0567C18.9486 18.25 18.9185 16.8287 18.9185 14.3964C18.9185 14.3111 18.9185 14.1734 18.9185 14.0085H23.2546H23.2834V13.9796C23.2834 11.5227 23.0495 9.86792 22.5108 8.82139C21.9721 7.77486 21.1228 7.34514 19.916 7.34514ZM19.916 7.40303C21.109 7.40303 21.9287 7.82025 22.4589 8.85033C22.9868 9.87601 23.2238 11.5149 23.2258 13.9506H18.8896H18.8608V13.9796C18.8608 14.1632 18.8608 14.3047 18.8608 14.3964C18.8608 16.8291 18.8866 18.2515 19.1145 19.0741C19.2285 19.4854 19.3937 19.7437 19.6335 19.9019C19.8732 20.0602 20.1823 20.1161 20.5791 20.1161C20.8487 20.1161 21.082 20.0973 21.2826 20.0235C21.4832 19.9497 21.6527 19.8184 21.7785 19.5951C22.028 19.1523 22.1277 18.3503 22.0956 16.9031H22.9951C23.1268 18.6254 22.9105 19.7246 22.3897 20.3882C21.8656 21.0559 21.0321 21.2971 19.916 21.2971C18.746 21.2971 17.774 20.8714 17.0906 19.8035C16.4072 18.7356 16.0124 17.0155 16.0123 14.4369C16.0123 12.0887 16.4409 10.3293 17.1425 9.15716C17.844 7.98499 18.8179 7.40303 19.916 7.40303ZM19.7719 8.45667C19.4586 8.45048 19.2256 8.70263 19.1433 8.98349C18.9468 9.59999 18.9492 10.2504 18.9012 10.8823C18.8665 11.6 18.8541 12.3181 18.8435 13.0359V13.0649H18.8723C19.5008 13.0649 20.1294 13.0649 20.7579 13.0649H20.7867V13.0359C20.7798 12.0355 20.8038 11.033 20.7752 10.0313C20.746 9.59655 20.7689 9.12273 20.5503 8.71718V8.71139C20.4675 8.57567 20.339 8.50645 20.1985 8.47404C20.0581 8.44163 19.9086 8.44679 19.7719 8.45667ZM19.7719 8.51456C19.9064 8.50484 20.0566 8.50185 20.187 8.53193C20.3174 8.56201 20.4309 8.62594 20.5042 8.74613C20.7096 9.13171 20.6881 9.59907 20.7175 10.0371C20.7458 11.0271 20.7228 12.0151 20.729 13.007C20.1197 13.007 19.5105 13.007 18.9012 13.007C18.9117 12.2989 18.9247 11.5892 18.9588 10.8823C19.0071 10.2472 19.0024 9.60556 19.1952 9.00085V8.99507C19.2716 8.73432 19.4905 8.509 19.7719 8.51456ZM63.3005 13.1112L63.2543 13.1401L63.2428 13.1459L63.2255 13.1575C62.936 13.336 62.6259 13.4912 62.3663 13.7191C62.2022 13.8268 62.0523 14.0114 61.9223 14.1648H61.9166C61.5279 14.7328 61.4745 15.4451 61.4322 16.1042C61.4046 16.9493 61.3815 17.7995 61.4265 18.6457C61.4544 18.9375 61.4728 19.2675 61.6398 19.5256C61.7807 19.7465 62.0478 19.7968 62.2856 19.7862C62.2875 19.7862 62.2895 19.7862 62.2914 19.7862C62.5657 19.7866 62.8474 19.6813 63.0121 19.4504C63.2503 19.1295 63.2812 18.7017 63.3005 18.3215C63.3067 16.602 63.2987 14.8826 63.3005 13.1633V13.1112ZM63.2428 13.2154C63.2412 14.9175 63.2433 16.6197 63.237 18.3215C63.2178 18.7009 63.1905 19.1133 62.966 19.4156C62.8137 19.6291 62.5465 19.7301 62.2856 19.7283C62.0569 19.7395 61.8118 19.6882 61.6859 19.4909C61.5307 19.251 61.518 18.9338 61.4899 18.6399C61.4451 17.7967 61.4623 16.949 61.4899 16.1042C61.5319 15.4484 61.5895 14.7555 61.9627 14.2054C61.9644 14.2033 61.9668 14.2016 61.9685 14.1996C62.0977 14.047 62.2511 13.8637 62.4009 13.7654C62.6478 13.5486 62.9557 13.3911 63.2428 13.2154Z" fill="#362E2B"/>
<path d="M80.9392 2.62695L80.9103 2.63274L77.3238 2.90484L77.295 2.91062V2.93378V3.85427V3.88321H77.3238H77.7793C77.9234 3.88321 78.026 3.91587 78.0965 4.00479C78.1669 4.09371 78.206 4.24769 78.206 4.49687V19.4562C78.206 19.6605 78.1856 19.785 78.1253 19.8557C78.065 19.9263 77.9592 19.9541 77.7793 19.9541H77.6409H77.6121V19.983V20.9035H77.6409V20.9324H77.6755H81.5043H81.5331V20.9035V19.983V19.9541H81.5043H81.2563C81.11 19.9541 81.03 19.9376 80.9911 19.8962C80.9522 19.8548 80.9392 19.7776 80.9392 19.6415V10.8534C80.9392 10.2928 80.9877 9.7974 81.1525 9.44665C81.3173 9.09589 81.5921 8.88509 82.0751 8.88509C82.2491 8.88509 82.3842 8.91361 82.4845 8.96614C82.5848 9.01867 82.6529 9.09489 82.7036 9.2035C82.8051 9.42072 82.8247 9.76397 82.8247 10.234V19.572C82.8247 19.7395 82.7839 19.8316 82.7209 19.8846C82.6579 19.9376 82.5672 19.9541 82.4441 19.9541H82.1904H82.1616V19.983V20.9035V20.9324H82.1904H86.146H86.1748V20.9035V19.983V19.9541H86.146H85.9384C85.7812 19.9541 85.687 19.9324 85.6328 19.873C85.5786 19.8136 85.5579 19.7069 85.5579 19.5257V9.73032C85.5579 8.9008 85.4082 8.25221 85.0504 7.81409C84.6926 7.37596 84.1255 7.15412 83.3091 7.15412C82.2749 7.15412 81.529 7.75086 80.9392 8.65352V2.66169V2.62695ZM80.8815 2.69063V8.74036V8.84457L80.9392 8.75773C81.5304 7.82179 82.2692 7.21201 83.3091 7.21201C84.1147 7.21201 84.6594 7.43228 85.0043 7.85461C85.3492 8.27695 85.5002 8.90792 85.5002 9.73032V19.5257C85.5002 19.7118 85.521 19.8353 85.5925 19.9135C85.6639 19.9918 85.7756 20.012 85.9384 20.012H86.1172V20.8746H82.2193V20.012H82.4441C82.5726 20.012 82.6812 19.9983 82.7613 19.9309C82.8414 19.8635 82.8824 19.7487 82.8824 19.572V10.234C82.8824 9.76252 82.8657 9.41616 82.7555 9.18034C82.7004 9.06243 82.6251 8.97256 82.5133 8.91404C82.4016 8.85552 82.2551 8.8272 82.0751 8.8272C81.5748 8.8272 81.2727 9.05152 81.1006 9.4177C80.9286 9.78388 80.8815 10.2896 80.8815 10.8534V19.6415C80.8815 19.7808 80.8926 19.8748 80.9507 19.9367C81.0089 19.9986 81.1055 20.012 81.2563 20.012H81.4754V20.8746H77.6755V20.012H77.7793C77.9653 20.012 78.0946 19.9862 78.1714 19.8962C78.2483 19.8062 78.2695 19.6649 78.2695 19.4562V4.49687C78.2695 4.24141 78.2265 4.07593 78.1426 3.97005C78.0587 3.86418 77.9324 3.82532 77.7793 3.82532H77.3526V2.96852L80.8815 2.69063ZM62.0597 19.5496C61.3275 19.5496 61.2598 19.067 61.2598 17.3458C61.2598 14.3175 61.4653 13.9044 63.0653 13.0088V17.8736C63.0653 18.8384 62.9053 19.5496 62.0597 19.5496ZM18.697 12.8266C18.7649 8.74169 18.9027 8.3056 19.7255 8.3056C20.6398 8.3056 20.5477 8.83339 20.5477 12.8266H18.697ZM19.7255 21.133C21.9655 21.133 23.1082 20.1686 22.8333 16.6812H21.874C21.9419 19.618 21.462 19.8938 20.3883 19.8938C18.8112 19.8938 18.6968 19.067 18.6968 14.2028C18.6968 14.1111 18.6968 13.9735 18.6968 13.7899H23.0617C23.0617 8.87951 22.1246 7.18203 19.7253 7.18203C17.5076 7.18203 15.794 9.54495 15.794 14.2488C15.7942 19.4113 17.3714 21.133 19.7255 21.133ZM36.0133 21.133C37.9782 21.133 39.0754 19.8014 39.0754 17.7819C39.0754 15.6713 38.3447 14.7541 36.8355 13.0783C35.3963 11.4949 34.8477 10.8986 34.8477 9.5909C34.8477 8.83339 35.099 8.35172 35.9676 8.35172C36.8355 8.35172 37.3389 8.69593 37.4983 10.0262L37.6583 11.3119H38.6641V7.41137H37.8413C37.7963 7.89285 37.7963 8.16795 37.6585 8.09867C37.4535 7.91582 36.6536 7.18184 35.5107 7.18184C33.9336 7.18184 32.5165 8.19093 32.5165 10.4168C32.5165 12.5048 33.2251 13.3306 34.7564 15.0754C36.0821 16.5893 36.7442 17.2547 36.7442 18.4931C36.7442 19.48 36.4706 20.0307 35.4421 20.0307C34.573 20.0307 34.0015 19.6178 33.7279 17.8735L33.545 16.6808H32.5394V20.9033H33.3851C33.4764 20.4667 33.705 20.0535 33.9108 20.1912C34.2075 20.5358 34.8933 21.133 36.0133 21.133ZM54.7842 21.133C57.0242 21.133 58.1669 20.1686 57.892 16.6812H56.9327C57.0013 19.618 56.5214 19.8938 55.447 19.8938C53.8699 19.8938 53.7557 19.067 53.7557 14.2028C53.7557 14.1111 53.7557 13.9735 53.7557 13.7899H58.1204C58.1204 8.87951 57.1842 7.18203 54.7842 7.18203C52.567 7.18203 50.8529 9.54495 50.8529 14.2488C50.8529 19.4113 52.4307 21.133 54.7842 21.133ZM60.917 21.133C62.2656 21.133 62.9282 20.1686 63.2941 19.4802C63.5225 20.5356 63.819 21.133 65.2138 21.133C66.8132 21.133 67.1787 20.1686 67.1787 18.2875H66.3567C66.3567 19.6415 66.3102 19.7792 66.0139 19.7792C65.7389 19.7792 65.7389 19.6645 65.7389 18.9064V10.5546C65.7389 7.86932 64.2997 7.18203 62.4027 7.18203C59.9798 7.18203 58.6085 8.87952 59.5229 10.5776C59.9113 11.2886 60.6656 11.4951 61.305 11.0137C61.9685 10.5092 62.0827 9.45288 60.3915 8.6046C60.6199 8.39767 61.2827 8.2139 61.7399 8.2139C63.0656 8.2139 63.0657 8.69648 63.0657 9.93565C63.0657 10.1189 63.0657 11.9318 63.0657 12.2756C59.7744 13.4007 58.6317 14.0196 58.6317 17.577C58.6314 20.3297 59.6825 21.133 60.917 21.133ZM23.0472 20.9037H27.2069V19.9857H26.9548C26.6578 19.9857 26.612 19.9163 26.612 19.6415V10.8532C26.612 9.72872 26.7949 8.85655 27.7776 8.85655C28.4861 8.85655 28.5553 9.29263 28.5553 10.2334V19.5721C28.5553 19.9163 28.3946 19.9857 28.1433 19.9857H27.892V20.9037H31.8455V19.9857H31.6405C31.3205 19.9857 31.2292 19.8938 31.2292 19.5267V9.72872C31.2292 8.07625 30.6348 7.18184 29.0128 7.18184C27.9606 7.18184 27.1608 7.80115 26.5664 8.7415V7.25002L23.0245 7.50233V8.42027H23.4817C23.7788 8.42027 23.9389 8.55828 23.9389 9.06273V19.4572C23.9389 19.8709 23.8467 19.9857 23.4817 19.9857H23.0473V20.9037H23.0472ZM72.466 18.1263C72.466 20.307 72.7631 21.133 74.9116 21.133C76.3053 21.133 77.2424 20.5356 77.2424 18.54V16.5895H76.2602V18.7466C76.2602 19.5498 76.146 19.8711 75.6888 19.8711C75.2316 19.8711 75.1402 19.5498 75.1402 18.8384V8.42045H77.1967V7.41137H75.1631V3.85429H74.2261C73.1748 7.04364 72.6946 7.41156 71.8261 7.41156H71.5519V8.39767H72.4662L72.466 18.1263ZM2.64867 20.9037H6.215V19.9857H5.66643C5.16289 19.9857 4.93501 19.3883 4.93501 18.5622V7.06661L7.81421 20.88H9.18554L12.0653 7.02086V18.7916C12.0653 19.6178 11.9282 19.9855 11.471 19.9855H10.8311V20.9035H15.973V19.9855H15.5844C15.1273 19.9855 14.9908 19.6178 14.9908 18.7916V5.04752C14.9908 4.22165 15.1273 3.85429 15.5844 3.85429H15.973V2.93636H11.6769L9.43685 14.2725L7.0599 2.93636H2.64867V3.85429H3.01512C3.47235 3.85429 3.74654 4.40506 3.74654 5.25445V18.5624C3.74654 19.3885 3.47235 19.9859 3.01512 19.9859H2.64867V20.9037ZM39.4874 20.9037H44.6751V19.9857H44.1494C43.6687 19.9857 43.5324 19.8244 43.5324 19.0213V12.3679H47.0064V19.0213C47.0064 19.8244 46.8457 19.9857 46.3887 19.9857H45.8635V20.9037H51.0284V19.9857H50.5711C50.091 19.9857 49.9546 19.8244 49.9546 19.0213V4.81836C49.9546 3.99157 50.091 3.85429 50.5711 3.85429H51.0284V2.93636H45.8635V3.85429H46.3887C46.8457 3.85429 47.0064 3.99157 47.0064 4.81836V11.2886H43.5324V4.81836C43.5324 3.99157 43.6687 3.85429 44.1494 3.85429H44.6751V2.93636H39.4874V3.85429H39.9668C40.4467 3.85429 40.5838 3.99157 40.5838 4.81836V19.4804C40.5838 19.8711 40.4467 19.9859 39.9668 19.9859H39.4874V20.9037ZM67.4841 20.9037H71.7117V19.9857H71.1632C70.8661 19.9857 70.7519 19.8711 70.7519 19.5031V2.66125L67.1641 2.93617V3.85411H67.6664C67.9642 3.85411 68.0784 3.94581 68.0784 4.3128V19.5496C68.0784 19.8937 68.0319 19.9857 67.7127 19.9857H67.4843L67.4841 20.9037ZM77.6428 20.9037H81.5055V19.9857H81.2534C80.9571 19.9857 80.9108 19.9163 80.9108 19.6415V10.8532C80.9108 9.72872 81.0937 8.85655 82.0769 8.85655C82.7849 8.85655 82.8534 9.29263 82.8534 10.2334V19.5721C82.8534 19.9163 82.6936 19.9857 82.4421 19.9857H82.1915V20.9037H86.1442V19.9857H85.9387C85.6193 19.9857 85.5278 19.8938 85.5278 19.5267V9.72872C85.5278 8.07625 84.9335 7.18184 83.3106 7.18184C82.2594 7.18184 81.5057 7.80115 80.9108 8.7415V2.66125L77.3223 2.93617V3.85411H77.7801C78.0764 3.85411 78.2373 3.99138 78.2373 4.49657V19.4572C78.2373 19.8709 78.146 19.9857 77.7801 19.9857H77.643V20.9037H77.6428ZM31.9147 7.86932C34.1995 6.14923 34.6568 4.86393 33.903 3.69349C33.4917 3.05103 32.5545 2.63828 31.8689 3.21183C31.0454 3.90024 31.2519 5.11588 32.7832 5.78131C32.5082 6.10292 31.8689 6.74538 31.3432 7.25002L31.9147 7.86932ZM53.7555 12.8266C53.8247 8.74169 53.9612 8.3056 54.784 8.3056C55.6983 8.3056 55.6068 8.83339 55.6068 12.8266H53.7555ZM29.0151 7.15412C27.9826 7.15412 27.1911 7.74811 26.5991 8.64774V7.25253V7.2178L26.5645 7.22359L23.0241 7.47252H22.9952V7.50147V8.42196V8.4509H23.0241H23.4796C23.6233 8.4509 23.7262 8.48357 23.7967 8.57248C23.8672 8.66138 23.912 8.81549 23.912 9.06456V19.4562C23.912 19.6605 23.886 19.785 23.8255 19.8557C23.7651 19.9263 23.6591 19.9541 23.4796 19.9541H23.0471H23.0183V19.983V20.9035V20.9324H23.0471H27.2103H27.2391V20.9035V19.983V19.9541H27.2103H26.9566C26.8103 19.9541 26.7303 19.9376 26.6913 19.8962C26.6524 19.8548 26.6394 19.7775 26.6394 19.6415V10.8534C26.6394 10.2928 26.6878 9.79741 26.8528 9.44665C27.0177 9.09589 27.2927 8.88509 27.7754 8.88509C27.9495 8.88509 28.0844 8.91362 28.1847 8.96614C28.2851 9.01867 28.3532 9.09489 28.4039 9.2035C28.5052 9.42072 28.525 9.76397 28.525 10.234V19.572C28.525 19.7395 28.4898 19.8316 28.4269 19.8846C28.3641 19.9376 28.2674 19.9541 28.1444 19.9541H27.8907H27.8618V19.983V20.9035V20.9324H27.8907H31.8462H31.8751V20.9035V19.983V19.9541H31.8462H31.6387C31.4815 19.9541 31.393 19.9324 31.3388 19.873C31.2846 19.8136 31.2581 19.7069 31.2581 19.5257V9.73032C31.2581 8.9008 31.1085 8.25221 30.7507 7.81409C30.3929 7.37596 29.8315 7.15412 29.0151 7.15412ZM29.0151 7.21201C29.8207 7.21201 30.3597 7.43228 30.7046 7.85461C31.0494 8.27695 31.2004 8.90792 31.2004 9.73032V19.5257C31.2004 19.7118 31.2213 19.8353 31.2927 19.9135C31.3641 19.9918 31.4759 20.012 31.6387 20.012H31.8174V20.8746H27.9195V20.012H28.1444C28.2727 20.012 28.3816 19.9983 28.4615 19.9309C28.5415 19.8635 28.5826 19.7487 28.5826 19.572V10.234C28.5826 9.76253 28.5715 9.41617 28.4615 9.18034C28.4065 9.06243 28.3254 8.97256 28.2136 8.91404C28.1018 8.85552 27.9555 8.8272 27.7754 8.8272C27.2753 8.8272 26.9731 9.05152 26.8009 9.4177C26.6287 9.78388 26.5818 10.2896 26.5818 10.8534V19.6415C26.5818 19.7808 26.5928 19.8749 26.651 19.9367C26.7092 19.9986 26.8058 20.012 26.9566 20.012H27.1757V20.8746H23.0759V20.012H23.4796C23.6652 20.012 23.7948 19.9862 23.8717 19.8962C23.9486 19.8062 23.9697 19.6649 23.9697 19.4562V9.06456C23.9697 8.80918 23.9268 8.63779 23.8428 8.53195C23.7589 8.42611 23.6324 8.39301 23.4796 8.39301H23.0529V7.53042L26.5356 7.28148V8.74036V8.84457L26.5933 8.75773C27.1842 7.82237 27.9745 7.21201 29.0151 7.21201ZM19.7258 7.15412C18.6066 7.15412 17.6158 7.75166 16.9062 8.9372C16.1966 10.1227 15.7645 11.8904 15.7645 14.2459C15.7645 16.8303 16.1608 18.5581 16.8543 19.6415C17.5478 20.7248 18.5416 21.164 19.7258 21.164C20.8499 21.164 21.707 20.9182 22.2456 20.232C22.7843 19.5457 23.0003 18.4248 22.8626 16.6774V16.6484H22.8338H21.8766H21.842L21.8478 16.6832C21.882 18.1501 21.7763 18.9496 21.5364 19.3751C21.4164 19.5879 21.2644 19.705 21.0751 19.7746C20.8858 19.8442 20.6561 19.8614 20.3889 19.8614C19.9972 19.8614 19.7031 19.8133 19.4779 19.6646C19.2526 19.5159 19.0938 19.2691 18.982 18.8657C18.7585 18.059 18.7283 16.6318 18.7283 14.1996C18.7283 14.1149 18.7283 13.9818 18.7283 13.8175H23.0644H23.0932V13.7886C23.0932 11.3315 22.859 9.67695 22.3206 8.63037C21.7822 7.58379 20.9324 7.15412 19.7258 7.15412ZM19.7258 7.21201C20.9185 7.21201 21.7387 7.62919 22.2687 8.65931C22.7964 9.68504 23.0336 11.3237 23.0356 13.7596H18.6994H18.6706V13.7886C18.6706 13.9716 18.6706 14.1084 18.6706 14.1996C18.6706 16.6322 18.6964 18.0547 18.9243 18.8773C19.0383 19.2886 19.2035 19.5527 19.4433 19.7109C19.683 19.8692 19.9921 19.9251 20.3889 19.9251C20.6586 19.9251 20.8918 19.9063 21.0924 19.8325C21.293 19.7587 21.4624 19.6273 21.5883 19.4041C21.8375 18.962 21.9368 18.1547 21.9054 16.7121H22.8049C22.937 18.4344 22.7203 19.5337 22.1995 20.1972C21.6754 20.8648 20.8415 21.1003 19.7258 21.1003C18.5558 21.1003 17.584 20.6804 16.9004 19.6125C16.2168 18.5447 15.8221 16.8242 15.8221 14.2459C15.8221 11.8976 16.2507 10.1384 16.9523 8.96614C17.6539 7.7939 18.6274 7.21201 19.7258 7.21201ZM19.7258 8.27723C19.5175 8.27723 19.3439 8.30548 19.2069 8.41617C19.0698 8.52685 18.9749 8.71112 18.9013 9.02403C18.7541 9.64986 18.7049 10.7851 18.6706 12.8275V12.8565H18.6994H20.5504H20.5792V12.8275C20.5792 10.8316 20.6021 9.70122 20.51 9.06456C20.464 8.74623 20.3898 8.54687 20.2621 8.42774C20.1343 8.30862 19.9572 8.27723 19.7258 8.27723ZM19.7258 8.33512C19.9516 8.33512 20.1096 8.36946 20.2217 8.47406C20.3339 8.57866 20.4071 8.75768 20.4524 9.07035C20.5423 9.6919 20.5218 10.8246 20.5215 12.7986H18.7283C18.7626 10.7797 18.8156 9.65096 18.9589 9.0414C19.031 8.7348 19.125 8.56116 19.2472 8.46248C19.3694 8.3638 19.5227 8.33512 19.7258 8.33512ZM54.784 8.27723C54.5757 8.27723 54.402 8.30545 54.265 8.41617C54.128 8.52688 54.033 8.71686 53.9594 9.02982C53.8123 9.65576 53.7634 10.7848 53.7288 12.8275L53.723 12.8565H53.7576H55.6085H55.6373V12.8275C55.6373 10.8312 55.6604 9.70132 55.5682 9.06456C55.522 8.74618 55.448 8.54688 55.3202 8.42774C55.1924 8.30861 55.0154 8.27723 54.784 8.27723ZM54.784 8.33512C55.0097 8.33512 55.1676 8.36945 55.2798 8.47406C55.3921 8.57867 55.4652 8.75763 55.5105 9.07035C55.6005 9.69199 55.58 10.8243 55.5797 12.7986H53.7864C53.821 10.7794 53.8738 9.65108 54.0171 9.0414C54.0891 8.73474 54.1832 8.56118 54.3054 8.46248C54.4275 8.36378 54.5809 8.33512 54.784 8.33512ZM32.4113 2.92799C32.2157 2.96076 32.0273 3.04184 31.852 3.18851C31.4328 3.53896 31.2705 4.03007 31.4138 4.51424C31.5547 4.99038 31.9865 5.45943 32.7342 5.79365C32.4527 6.1189 31.8364 6.73459 31.3215 7.22938L31.3042 7.24675L31.3215 7.2699L31.8924 7.88935L31.9097 7.90672L31.9327 7.89514C33.0772 7.03326 33.7686 6.27555 34.0777 5.58524C34.3869 4.89493 34.3088 4.26672 33.9278 3.6748C33.7182 3.34778 33.3784 3.08265 32.9995 2.96852C32.81 2.91145 32.607 2.89523 32.4113 2.92799ZM32.4229 2.98588C32.6087 2.95487 32.8002 2.9716 32.9822 3.02641C33.3461 3.13602 33.6742 3.39483 33.8759 3.70954C34.2487 4.28861 34.3223 4.88712 34.0201 5.56208C33.7198 6.23255 33.0421 6.97407 31.9154 7.82567L31.385 7.24675C31.9061 6.74508 32.5308 6.11834 32.8034 5.79944L32.8323 5.7705L32.7977 5.75313C32.0376 5.42273 31.6083 4.95931 31.4714 4.49687C31.3346 4.03443 31.4823 3.57277 31.8866 3.23482C32.0542 3.09462 32.2371 3.0169 32.4229 2.98588ZM70.7792 2.62695L70.7504 2.63274L67.1639 2.90484L67.135 2.91062V2.93378V3.85427V3.88321H67.1639H67.6655C67.8113 3.88321 67.9081 3.90423 67.9654 3.96426C68.0226 4.02429 68.0519 4.13118 68.0519 4.31161V19.5488C68.0518 19.7196 68.0372 19.8236 67.9942 19.8788C67.9727 19.9064 67.9412 19.9239 67.8962 19.9367C67.8512 19.9495 67.7902 19.9541 67.7116 19.9541H67.4868H67.4522V19.983V20.9035H67.4868V20.9324H67.5156H71.7134H71.7422V20.9035V19.983V19.9541H71.7134H71.1656C71.0208 19.9541 70.9296 19.9274 70.8715 19.8614C70.8134 19.7955 70.7792 19.6831 70.7792 19.5025V2.66169V2.62695ZM70.7216 2.69063V19.5025C70.7216 19.6893 70.7521 19.8187 70.8254 19.902C70.8987 19.9852 71.0133 20.012 71.1656 20.012H71.6845V20.8746H67.5156V20.012H67.7116C67.793 20.012 67.8599 20.0098 67.9135 19.9946C67.967 19.9794 68.0104 19.9519 68.0403 19.9135C68.1001 19.8368 68.1095 19.7222 68.1095 19.5488V4.31161C68.1095 4.12506 68.0797 4.0013 68.0057 3.92374C67.9317 3.84617 67.8173 3.82532 67.6655 3.82532H67.1927V2.96852L70.7216 2.69063ZM39.4576 2.90484V2.93378V3.85427V3.88321H39.4864H39.965C40.0836 3.88321 40.1835 3.89372 40.259 3.91795C40.3346 3.94217 40.3884 3.98178 40.432 4.04531C40.5193 4.17236 40.5531 4.40399 40.5531 4.81528V19.4794C40.5531 19.6708 40.5228 19.7859 40.4378 19.8557C40.3528 19.9254 40.2026 19.9541 39.965 19.9541H39.4864H39.4576V19.983V20.9035V20.9324H39.4864H44.6759H44.7047V20.9035V19.983V19.9541H44.6759H44.1512C44.033 19.9541 43.9382 19.9453 43.8629 19.9193C43.7875 19.8934 43.7278 19.8513 43.6841 19.7862C43.5968 19.6559 43.563 19.4219 43.563 19.022V12.3934H46.9766V19.022C46.9766 19.4216 46.9343 19.6555 46.844 19.7862C46.7988 19.8515 46.7455 19.8934 46.671 19.9193C46.5965 19.9453 46.501 19.9541 46.3885 19.9541H45.8637H45.8349V19.983V20.9035V20.9324H45.8637H51.0302H51.059V20.9035V19.983V19.9541H51.0302H50.5689C50.4505 19.9541 50.356 19.9453 50.2806 19.9193C50.2052 19.8934 50.1512 19.8513 50.1076 19.7862C50.0204 19.6559 49.9865 19.4219 49.9865 19.022V4.81528C49.9865 4.40397 50.0207 4.17234 50.1076 4.04531C50.1511 3.98179 50.2052 3.94217 50.2806 3.91795C50.3561 3.89373 50.4503 3.88321 50.5689 3.88321H51.0302H51.059V3.85427V2.93378V2.90484H51.0302H45.8637H45.8349V2.93378V3.85427V3.88321H45.8637H46.3885C46.5013 3.88321 46.5965 3.89373 46.671 3.91795C46.7455 3.94217 46.799 3.98161 46.844 4.04531C46.934 4.17271 46.9766 4.40426 46.9766 4.81528V11.2587H43.563V4.81528C43.563 4.40398 43.5971 4.17235 43.6841 4.04531C43.7276 3.98179 43.7817 3.94217 43.8571 3.91795C43.9325 3.89373 44.0327 3.88321 44.1512 3.88321H44.6759H44.7047V3.85427V2.93378V2.90484H44.6759H39.4864H39.4576ZM39.5152 2.96852H44.6471V3.82532H44.1512C44.03 3.82532 43.9249 3.83273 43.8398 3.86006C43.7547 3.88738 43.6887 3.93655 43.638 4.01058C43.5366 4.15863 43.5054 4.4007 43.5054 4.81528V11.2876V11.3166H43.5342H47.0054H47.0343V11.2876V4.81528C47.0343 4.40043 47.0002 4.15828 46.8959 4.01058C46.8437 3.93672 46.7724 3.88738 46.6883 3.86006C46.6042 3.83273 46.5042 3.82532 46.3885 3.82532H45.8926V2.96852H51.0014V3.82532H50.5689C50.4475 3.82532 50.3485 3.83273 50.2633 3.86006C50.1782 3.88738 50.1064 3.93654 50.0557 4.01058C49.9544 4.15865 49.9231 4.40071 49.9231 4.81528V19.022C49.9231 19.4252 49.9548 19.6701 50.0557 19.8209C50.1062 19.8963 50.1781 19.9479 50.2633 19.9772C50.3485 20.0065 50.4472 20.012 50.5689 20.012H51.0014V20.8746H45.8926V20.012H46.3885C46.5045 20.012 46.6042 20.0065 46.6883 19.9772C46.7724 19.9479 46.8439 19.8961 46.8959 19.8209C46.9999 19.6705 47.0343 19.4255 47.0343 19.022V12.3644V12.3355H47.0054H43.5342H43.5054V12.3644V19.022C43.5054 19.4252 43.537 19.6702 43.638 19.8209C43.6885 19.8963 43.7546 19.9479 43.8398 19.9772C43.925 20.0065 44.0297 20.012 44.1512 20.012H44.6471V20.8746H39.5152V20.012H39.965C40.2073 20.012 40.3685 19.9871 40.4724 19.902C40.5763 19.8168 40.6166 19.6778 40.6165 19.4794V4.81528C40.6165 4.40069 40.5798 4.15863 40.4782 4.01058C40.4273 3.93655 40.3616 3.88738 40.2763 3.86006C40.1911 3.83273 40.0864 3.82532 39.965 3.82532H39.5152V2.96852ZM2.61768 2.90484V2.93378V3.85427V3.88321H2.65227H3.01554C3.2324 3.88321 3.40617 4.01061 3.52873 4.24793C3.65128 4.48525 3.71901 4.83376 3.71901 5.25526V18.5647C3.71901 18.9744 3.65156 19.3256 3.52873 19.572C3.4059 19.8183 3.23131 19.9541 3.01554 19.9541H2.65227H2.61768V19.983V20.9035V20.9324H2.65227H6.21575H6.24458V20.9035V19.983V19.9541H6.21575H5.66796C5.42777 19.9541 5.25446 19.818 5.13748 19.572C5.0205 19.326 4.9645 18.9749 4.9645 18.5647V7.35095L7.78414 20.8861L7.7899 20.9093H7.81297H9.18531H9.20838L9.21414 20.8861L12.0338 7.33358V18.7904C12.0338 19.2019 12.0004 19.5007 11.9127 19.6878C11.825 19.8749 11.6952 19.9541 11.4745 19.9541H10.8344H10.7998V19.983V20.9035V20.9324H10.8344H15.9721H16.0009V20.9035V19.983V19.9541H15.9721H15.5857C15.365 19.9541 15.2293 19.8749 15.1417 19.6878C15.0542 19.5007 15.0206 19.2019 15.0206 18.7904V5.04684C15.0206 4.63555 15.0542 4.34231 15.1417 4.15531C15.2293 3.9683 15.365 3.88321 15.5857 3.88321H15.9721H16.0009V3.85427V2.93378V2.90484H15.9721H11.6763H11.6532L11.6475 2.92799L9.43902 14.1243L7.08644 2.92799V2.90484H7.0576H2.65227H2.61768ZM2.6811 2.96852H7.04031L9.41019 14.2633V14.2749H9.46785V14.2633L11.6993 2.96852H15.9432V3.82532H15.5857C15.3494 3.82532 15.1848 3.92349 15.0898 4.12636C14.9949 4.32922 14.963 4.63228 14.963 5.04684V18.7904C14.963 19.2052 14.9949 19.508 15.0898 19.7109C15.1848 19.9139 15.3493 20.012 15.5857 20.012H15.9432V20.8746H10.8633V20.012H11.4745C11.7109 20.012 11.8694 19.9139 11.9646 19.7109C12.0597 19.508 12.0972 19.2052 12.0972 18.7904V7.02676V7.02097H12.0684L12.0396 7.01518V7.02097H12.0338V7.04412L9.16225 20.8514H7.83603L4.9645 7.06728V7.06149L4.93566 7.06728H4.90683V7.07307V18.5647C4.90683 18.9804 4.96247 19.3363 5.08558 19.5951C5.2087 19.854 5.40461 20.012 5.66796 20.012H6.18692V20.8746H2.6811V20.012H3.01554C3.25682 20.012 3.45172 19.8537 3.58062 19.5951C3.70952 19.3366 3.77667 18.981 3.77667 18.5647V5.25526C3.77667 4.82736 3.70975 4.46903 3.58062 4.21899C3.4515 3.96895 3.25591 3.82532 3.01554 3.82532H2.6811V2.96852ZM74.2043 3.82532L74.1986 3.84269C73.6728 5.43641 73.2916 6.32776 72.9358 6.81255C72.5799 7.29735 72.2584 7.3799 71.8287 7.3799H71.5519H71.5231V7.40884V8.3988V8.42774H71.5519H72.4399V18.1247C72.4399 19.2157 72.5107 19.9743 72.8608 20.4635C73.2109 20.9527 73.8359 21.164 74.9136 21.164C75.6149 21.164 76.2044 21.0083 76.6203 20.6025C77.0363 20.1966 77.2719 19.544 77.2719 18.5415V16.5905V16.5616H77.2431H76.2628H76.2282V16.5905V18.7441C76.2282 19.1443 76.2004 19.4231 76.1187 19.5951C76.037 19.7672 75.908 19.8383 75.6862 19.8383C75.4645 19.8383 75.347 19.7673 75.2711 19.6067C75.1951 19.4461 75.1673 19.1915 75.1673 18.8368V8.4509H77.197H77.2258V8.42196V7.40884V7.3799H77.197H75.1903V3.85427V3.82532H75.1615H74.2274H74.2043ZM74.2505 3.88321H75.1327V7.40884V7.43779H75.1615H77.1681V8.39301H75.1384H75.1096V8.42196V18.8368C75.1096 19.1941 75.1351 19.458 75.2192 19.6357C75.3032 19.8134 75.4508 19.8962 75.6862 19.8962C75.9217 19.8962 76.0809 19.813 76.1706 19.6241C76.2603 19.4351 76.2917 19.1471 76.2917 18.7441V16.6195H77.2143V18.5415C77.2143 19.5347 76.9811 20.1706 76.58 20.5619C76.1788 20.9533 75.6066 21.1003 74.9136 21.1003C73.8434 21.1003 73.2423 20.8975 72.9069 20.4288C72.5715 19.9601 72.4975 19.213 72.4975 18.1247V8.3988V8.36985H72.4687H71.5807V7.43779H71.8287C72.2667 7.43779 72.6177 7.34342 72.9819 6.84729C73.344 6.35406 73.7288 5.46132 74.2505 3.88321ZM62.401 7.15412C61.1828 7.15412 60.2293 7.58 59.6909 8.22512C59.1526 8.87025 59.0329 9.73483 59.4949 10.5929C59.6925 10.9544 59.9878 11.1877 60.3137 11.2702C60.6395 11.3528 60.997 11.284 61.3228 11.0387C61.6617 10.7806 61.8637 10.3782 61.761 9.93294C61.6604 9.49712 61.2656 9.02742 60.4521 8.60721C60.5662 8.51737 60.7565 8.42441 60.9883 8.35827C61.2373 8.28723 61.5132 8.24249 61.7379 8.24249C62.0676 8.24249 62.3176 8.2723 62.4991 8.33512C62.6805 8.39794 62.7945 8.49273 62.8739 8.62458C63.0326 8.88828 63.0353 9.31336 63.0353 9.93294C63.0353 10.116 63.0353 11.9033 63.0353 12.2602C61.4047 12.8179 60.2927 13.2482 59.5929 13.9912C58.8891 14.7385 58.6011 15.7934 58.6011 17.5747C58.601 18.9554 58.8644 19.8531 59.2873 20.4056C59.7102 20.9582 60.2956 21.164 60.9191 21.164C61.6003 21.164 62.109 20.9158 62.4933 20.5851C62.8589 20.2705 63.1015 19.8839 63.2833 19.5488C63.3945 20.045 63.5251 20.4488 63.7964 20.724C64.0804 21.0121 64.5137 21.164 65.2149 21.164C66.0205 21.164 66.527 20.9137 66.8237 20.4288C67.1204 19.9438 67.21 19.2295 67.21 18.2868V18.2578H67.1812H66.3566H66.3278V18.2868C66.3278 18.9634 66.3171 19.3347 66.2701 19.5315C66.2466 19.6298 66.2162 19.6825 66.1779 19.7109C66.1395 19.7393 66.0882 19.7514 66.0164 19.7514C65.9497 19.7514 65.9034 19.7407 65.8723 19.7225C65.8411 19.7043 65.819 19.6756 65.8031 19.6183C65.7711 19.5037 65.7685 19.2849 65.7685 18.9062V10.5524C65.7685 9.20482 65.4045 8.35151 64.7997 7.83725C64.195 7.32298 63.3531 7.15412 62.401 7.15412ZM62.401 7.21201C63.346 7.21201 64.176 7.38258 64.7652 7.88356C65.3543 8.38454 65.7108 9.21542 65.7108 10.5524V18.9062C65.7108 19.2849 65.7086 19.5036 65.7454 19.6357C65.7638 19.7017 65.7973 19.7476 65.8434 19.7746C65.8896 19.8016 65.9456 19.8093 66.0164 19.8093C66.0928 19.8093 66.1588 19.797 66.2125 19.7572C66.2661 19.7175 66.3026 19.6541 66.3278 19.5488C66.3769 19.3431 66.3849 18.9639 66.3854 18.3157H67.1523C67.1502 19.2383 67.0543 19.938 66.7718 20.3998C66.4859 20.8671 66.0087 21.1003 65.2149 21.1003C64.5221 21.1003 64.1071 20.9576 63.8368 20.6835C63.5665 20.4094 63.4376 19.9998 63.3236 19.4736L63.3063 19.3925L63.266 19.4678C63.0839 19.8105 62.8286 20.2213 62.4529 20.5446C62.0773 20.8678 61.5864 21.1003 60.9191 21.1003C60.3083 21.1003 59.7448 20.9083 59.3334 20.3709C58.9221 19.8335 58.6644 18.9478 58.6646 17.5747C58.6646 15.7998 58.9487 14.7647 59.6391 14.0317C60.3294 13.2987 61.4306 12.8627 63.0757 12.3007L63.093 12.2949V12.2718C63.093 11.9276 63.093 10.1169 63.093 9.93294C63.093 9.31336 63.0985 8.88265 62.9258 8.59563C62.8394 8.45212 62.7077 8.34927 62.5164 8.28301C62.325 8.21676 62.0711 8.1846 61.7379 8.1846C61.5054 8.1846 61.2247 8.228 60.971 8.30038C60.7173 8.37277 60.4932 8.47463 60.3714 8.58405L60.3425 8.613L60.3771 8.63037C61.2179 9.05275 61.6061 9.5233 61.7033 9.94452C61.8005 10.3657 61.6127 10.7453 61.2882 10.9924C60.9746 11.2285 60.6334 11.2905 60.3252 11.2124C60.017 11.1343 59.7378 10.9135 59.5468 10.564C59.0945 9.724 59.2126 8.88836 59.7371 8.25986C60.2615 7.63136 61.1965 7.21201 62.401 7.21201ZM54.784 7.15412C53.6653 7.15412 52.6741 7.75166 51.9643 8.9372C51.2546 10.1227 50.8226 11.8904 50.8226 14.2459C50.8227 16.8303 51.2188 18.5581 51.9124 19.6415C52.606 20.7248 53.6002 21.164 54.784 21.164C55.9081 21.164 56.7651 20.9182 57.3038 20.232C57.8424 19.5457 58.0585 18.4248 57.9207 16.6774V16.6484H57.8919H56.9347H56.9059V16.6832C56.9401 18.1501 56.8343 18.9496 56.5945 19.3751C56.4746 19.5879 56.3226 19.705 56.1332 19.7746C55.9439 19.8443 55.7144 19.8614 55.4471 19.8614C55.0554 19.8614 54.7612 19.8133 54.536 19.6646C54.3108 19.5159 54.1519 19.2691 54.0401 18.8657C53.8166 18.059 53.7864 16.6318 53.7864 14.1996C53.7864 14.1149 53.7864 13.9818 53.7864 13.8175H58.1226H58.1514V13.7886C58.1514 11.3315 57.917 9.67695 57.3787 8.63037C56.8404 7.58379 55.9908 7.15412 54.784 7.15412ZM54.784 7.21201C55.977 7.21201 56.797 7.62919 57.3268 8.65931C57.8544 9.68503 58.0917 11.3237 58.0937 13.7596H53.7576H53.7288V13.7886C53.7288 13.9716 53.7288 14.1084 53.7288 14.1996C53.7288 16.6322 53.7546 18.0547 53.9825 18.8773C54.0964 19.2886 54.2617 19.5526 54.5014 19.7109C54.7412 19.8692 55.0502 19.9251 55.4471 19.9251C55.7169 19.9251 55.9499 19.9063 56.1505 19.8325C56.3512 19.7587 56.5206 19.6273 56.6464 19.4041C56.8955 18.962 56.9948 18.1547 56.9636 16.7121H57.8631C57.9951 18.4344 57.7785 19.5337 57.2576 20.1972C56.7336 20.8648 55.8997 21.1003 54.784 21.1003C53.6144 21.1003 52.6422 20.6804 51.9586 19.6125C51.2749 18.5447 50.8804 16.8242 50.8803 14.2459C50.8803 11.8976 51.3086 10.1384 52.0104 8.96614C52.7122 7.79389 53.6862 7.21201 54.784 7.21201ZM35.5135 7.15412C34.7187 7.15412 33.9608 7.40485 33.4031 7.94145C32.8455 8.47805 32.4863 9.2946 32.4863 10.4134C32.4863 11.4611 32.6633 12.2015 33.0341 12.8912C33.4049 13.581 33.9694 14.2194 34.7351 15.0911C35.3982 15.8486 35.8936 16.3958 36.2227 16.9032C36.5519 17.4105 36.7129 17.881 36.7129 18.4952C36.7129 18.9859 36.6439 19.36 36.4534 19.6125C36.2629 19.865 35.9534 20.0004 35.4443 20.0004C35.0143 20.0004 34.663 19.9038 34.3834 19.5893C34.1037 19.2749 33.8912 18.7394 33.7548 17.87L33.5761 16.6774L33.5703 16.6484H33.5473H32.5382H32.5094V16.6832V20.9035V20.9324H32.5382H33.3858H33.4089L33.4146 20.9093C33.4598 20.6943 33.5372 20.4833 33.628 20.3477C33.6734 20.28 33.7219 20.2313 33.7664 20.2088C33.8109 20.1863 33.8497 20.1854 33.8932 20.2146C34.1972 20.5639 34.8902 21.164 36.0152 21.164C37.0042 21.164 37.7786 20.8237 38.3043 20.232C38.8301 19.6402 39.1058 18.7981 39.1058 17.7831C39.1058 16.7241 38.9201 15.9601 38.5465 15.2532C38.1729 14.5463 37.6114 13.8966 36.857 13.0591C36.1374 12.2674 35.6437 11.725 35.329 11.2181C35.0143 10.7113 34.8792 10.241 34.8792 9.59138C34.8792 9.21581 34.9391 8.91265 35.1041 8.70563C35.2691 8.4986 35.5402 8.38143 35.969 8.38143C36.3991 8.38143 36.7309 8.46598 36.9781 8.71142C37.2254 8.95685 37.389 9.36928 37.4682 10.0314L37.6297 11.3166L37.6355 11.3397H37.6585H38.6618H38.6964V11.3108V7.40884V7.3799H38.6618H37.843H37.8142V7.40884C37.7916 7.6502 37.7787 7.83641 37.7565 7.95303C37.7455 8.01134 37.7293 8.05338 37.7162 8.06881C37.7096 8.07653 37.7045 8.07961 37.6989 8.08039C37.6944 8.08102 37.6855 8.0785 37.6758 8.0746C37.6753 8.07412 37.6706 8.07509 37.6701 8.0746C37.4631 7.88921 36.6658 7.15412 35.5135 7.15412ZM35.5135 7.21201C36.6437 7.21201 37.4355 7.93671 37.6412 8.12092L37.647 8.12671C37.6677 8.13712 37.6895 8.1412 37.7104 8.13828C37.7314 8.13537 37.7488 8.12525 37.7623 8.10934C37.7894 8.07752 37.8024 8.02676 37.8142 7.96461C37.8368 7.84548 37.8512 7.66396 37.8719 7.43779H38.633V11.2818H37.6816L37.5259 10.0198C37.4459 9.35098 37.2798 8.93028 37.0185 8.67089C36.7572 8.41151 36.4068 8.32354 35.969 8.32354C35.5294 8.32354 35.2358 8.44776 35.058 8.67089C34.8801 8.89403 34.8216 9.20925 34.8216 9.59138C34.8216 10.2493 34.9577 10.7327 35.2771 11.2471C35.5965 11.7615 36.0971 12.308 36.8167 13.0996C37.5707 13.9367 38.1254 14.5837 38.4946 15.2822C38.8638 15.9807 39.0482 16.731 39.0482 17.7831C39.0482 18.7874 38.7722 19.6186 38.2582 20.1972C37.7442 20.7758 36.991 21.1003 36.0152 21.1003C34.9056 21.1003 34.228 20.5143 33.9336 20.1741L33.9278 20.1683C33.8688 20.1287 33.8022 20.1269 33.7433 20.1567C33.6844 20.1865 33.6306 20.2402 33.5819 20.313C33.4883 20.4526 33.4156 20.6632 33.3685 20.8746H32.567V16.7121H33.5242L33.6972 17.8757C33.8344 18.7507 34.0454 19.2959 34.3372 19.6241C34.629 19.9522 35.0051 20.0583 35.4443 20.0583C35.9639 20.0583 36.3019 19.9168 36.5053 19.6472C36.7087 19.3777 36.7763 18.9914 36.7763 18.4952C36.7763 17.8704 36.608 17.3823 36.2746 16.8684C35.9413 16.3546 35.4439 15.8134 34.7812 15.0564C34.0156 14.1847 33.4522 13.5436 33.086 12.8623C32.7197 12.181 32.544 11.4544 32.544 10.4134C32.544 9.3072 32.8983 8.51235 33.4435 7.98776C33.9886 7.46317 34.7312 7.21201 35.5135 7.21201ZM63.093 12.9607L63.0526 12.9839C62.2514 13.4323 61.791 13.7657 61.5361 14.3675C61.2812 14.9693 61.2305 15.8279 61.2305 17.3431C61.2305 18.204 61.2461 18.7593 61.3574 19.1031C61.413 19.275 61.4952 19.3971 61.6111 19.4736C61.727 19.55 61.8748 19.5778 62.0608 19.5778C62.4919 19.5778 62.7589 19.3919 62.9085 19.0857C63.058 18.7795 63.093 18.3594 63.093 17.8757V13.007V12.9607ZM63.0353 13.0649V17.8757C63.0353 18.3561 62.9984 18.7721 62.8566 19.0625C62.7147 19.3529 62.4754 19.5199 62.0608 19.5199C61.8812 19.5199 61.7484 19.4892 61.6457 19.4215C61.543 19.3537 61.468 19.2494 61.415 19.0857C61.3091 18.7582 61.2882 18.2032 61.2882 17.3431C61.2882 15.8293 61.34 14.9762 61.588 14.3906C61.8301 13.8191 62.2722 13.4957 63.0353 13.0649Z" fill="#424680"/>
</svg>
