<svg width="98" height="24" viewBox="0 0 98 24" fill="none" xmlns="http://www.w3.org/2000/svg">
<g clip-path="url(#clip0_31_8370)">
<path d="M25.7545 8.5061H35.6773V10.3523H31.7757V20.7304H29.6302V10.3523H25.7458V8.5061H25.7545ZM35.2534 11.8792H37.0875V13.5873H37.1221C37.1826 13.3458 37.2951 13.1129 37.4595 12.8886C37.6238 12.6643 37.8228 12.4486 38.0564 12.2674C38.29 12.0776 38.5495 11.931 38.835 11.8102C39.1205 11.6981 39.4146 11.6377 39.7088 11.6377C39.9337 11.6377 40.0981 11.6463 40.1846 11.6549C40.2711 11.6635 40.3576 11.6808 40.4528 11.6894V13.5701C40.3144 13.5442 40.1759 13.527 40.0289 13.5097C39.8818 13.4924 39.7434 13.4838 39.605 13.4838C39.2762 13.4838 38.9648 13.5528 38.6706 13.6822C38.3765 13.8116 38.1256 14.0101 37.9093 14.2602C37.6931 14.519 37.52 14.8296 37.3903 15.2092C37.2605 15.5888 37.1999 16.0201 37.1999 16.5119V20.7218H35.2448V11.8792H35.2534ZM49.4413 20.7304H47.5207V19.4968H47.4861C47.2439 19.9454 46.8892 20.2991 46.4134 20.5665C45.9376 20.8339 45.4531 20.972 44.96 20.972C43.7921 20.972 42.9443 20.6873 42.4252 20.1093C41.9062 19.5313 41.6466 18.6599 41.6466 17.4953V11.8792H43.6018V17.3055C43.6018 18.0819 43.7488 18.6341 44.0516 18.9533C44.3458 19.2725 44.7697 19.4364 45.3061 19.4364C45.7213 19.4364 46.0587 19.376 46.3355 19.2466C46.6124 19.1172 46.8373 18.9533 47.0017 18.7376C47.1747 18.5305 47.2958 18.2717 47.3737 17.9784C47.4515 17.6851 47.4861 17.3659 47.4861 17.0208V11.8878H49.4413V20.7304ZM52.772 17.8922C52.8325 18.4615 53.0488 18.8584 53.4208 19.0913C53.8015 19.3156 54.2513 19.4364 54.779 19.4364C54.9607 19.4364 55.1683 19.4191 55.4019 19.3932C55.6355 19.3674 55.8604 19.307 56.0594 19.2293C56.267 19.1517 56.4314 19.0309 56.5698 18.8756C56.6996 18.7203 56.7601 18.5219 56.7515 18.2717C56.7428 18.0216 56.6477 17.8145 56.4747 17.6592C56.3016 17.4953 56.0854 17.3745 55.8172 17.271C55.549 17.1761 55.2462 17.0899 54.9002 17.0208C54.5541 16.9518 54.2081 16.8742 53.8534 16.7965C53.49 16.7189 53.1353 16.6154 52.7979 16.5032C52.4605 16.3911 52.1577 16.2358 51.8896 16.0374C51.6214 15.8476 51.4051 15.5974 51.2494 15.2955C51.085 14.9935 51.0071 14.6226 51.0071 14.174C51.0071 13.6909 51.1283 13.294 51.3618 12.9662C51.5954 12.6384 51.8982 12.3796 52.2529 12.1812C52.6163 11.9827 53.0142 11.8447 53.4554 11.7584C53.8966 11.6808 54.3205 11.6377 54.7185 11.6377C55.177 11.6377 55.6182 11.6894 56.0335 11.7843C56.4487 11.8792 56.8294 12.0345 57.1667 12.2588C57.5041 12.4745 57.781 12.7592 58.0059 13.1042C58.2308 13.4493 58.3693 13.872 58.4298 14.3638H56.3881C56.293 13.8979 56.0854 13.5787 55.748 13.4234C55.4106 13.2595 55.0213 13.1819 54.5887 13.1819C54.4503 13.1819 54.2859 13.1905 54.0956 13.2164C53.9053 13.2423 53.7322 13.2854 53.5592 13.3458C53.3949 13.4062 53.2564 13.5011 53.1353 13.6218C53.0229 13.7426 52.9623 13.8979 52.9623 14.0963C52.9623 14.3379 53.0488 14.5277 53.2132 14.6743C53.3776 14.821 53.5938 14.9418 53.862 15.0453C54.1302 15.1402 54.433 15.2264 54.779 15.2955C55.1251 15.3645 55.4798 15.4421 55.8431 15.5198C56.1978 15.5974 56.5439 15.7009 56.8899 15.8131C57.236 15.9252 57.5387 16.0805 57.8069 16.2789C58.0751 16.4773 58.2914 16.7189 58.4558 17.0122C58.6201 17.3055 58.7066 17.6765 58.7066 18.1078C58.7066 18.6341 58.5855 19.074 58.3433 19.445C58.1011 19.8073 57.7896 20.1093 57.409 20.3336C57.0283 20.5579 56.5958 20.7304 56.1286 20.8339C55.6615 20.9374 55.1943 20.9892 54.7358 20.9892C54.1735 20.9892 53.6544 20.9288 53.1786 20.7994C52.7028 20.67 52.2875 20.4802 51.9415 20.23C51.5954 19.9712 51.3186 19.652 51.1196 19.2725C50.9206 18.8929 50.8168 18.4357 50.7995 17.9094H52.772V17.8922ZM59.2257 11.8792H60.7051V9.22214H62.6602V11.8792H64.425V13.3372H62.6602V18.0647C62.6602 18.2717 62.6689 18.4443 62.6862 18.5996C62.7035 18.7462 62.7467 18.8756 62.8073 18.9791C62.8678 19.0827 62.963 19.1603 63.0928 19.2121C63.2225 19.2638 63.3869 19.2897 63.6118 19.2897C63.7503 19.2897 63.8887 19.2897 64.0271 19.2811C64.1655 19.2725 64.3039 19.2552 64.4424 19.2207V20.7304C64.2261 20.7563 64.0098 20.7735 63.8108 20.7994C63.6032 20.8253 63.3956 20.8339 63.1793 20.8339C62.6602 20.8339 62.245 20.7822 61.9335 20.6873C61.6221 20.5924 61.3712 20.4457 61.1982 20.2559C61.0165 20.0661 60.904 19.8332 60.8348 19.5485C60.7743 19.2638 60.731 18.936 60.7224 18.5737V13.3544H59.243V11.8792H59.2257ZM65.8092 11.8792H67.6606V13.0784H67.6952C67.972 12.5607 68.3527 12.1984 68.8458 11.9741C69.3389 11.7498 69.8666 11.6377 70.4462 11.6377C71.147 11.6377 71.7526 11.7584 72.2716 12.0086C72.7907 12.2502 73.2233 12.5866 73.5693 13.018C73.9153 13.4493 74.1662 13.9497 74.3392 14.519C74.5123 15.0884 74.5988 15.7009 74.5988 16.3479C74.5988 16.9432 74.5209 17.5212 74.3652 18.0733C74.2095 18.6341 73.9759 19.1258 73.6645 19.5571C73.353 19.9885 72.9551 20.3249 72.4706 20.5837C71.9861 20.8426 71.4238 20.972 70.7663 20.972C70.4808 20.972 70.1953 20.9461 69.9099 20.8943C69.6244 20.8426 69.3475 20.7563 69.088 20.6441C68.8285 20.532 68.5776 20.3853 68.3613 20.2042C68.1364 20.023 67.9547 19.816 67.799 19.583H67.7644V24H65.8092V11.8792ZM72.6436 16.3134C72.6436 15.9166 72.5917 15.5284 72.4879 15.1488C72.3841 14.7692 72.2284 14.4414 72.0207 14.1481C71.8131 13.8548 71.5536 13.6218 71.2508 13.4493C70.9393 13.2768 70.5846 13.1819 70.1867 13.1819C69.3648 13.1819 68.742 13.4666 68.3267 14.0359C67.9115 14.6053 67.7038 15.3645 67.7038 16.3134C67.7038 16.762 67.7557 17.1761 67.8682 17.5557C67.9807 17.9353 68.1364 18.2631 68.3613 18.5392C68.5776 18.8152 68.8371 19.0309 69.1399 19.1862C69.4427 19.3501 69.7974 19.4277 70.1954 19.4277C70.6452 19.4277 71.0172 19.3328 71.3287 19.1517C71.6401 18.9705 71.891 18.729 72.0899 18.4443C72.2889 18.151 72.436 17.8231 72.5225 17.4522C72.6004 17.0812 72.6436 16.7016 72.6436 16.3134ZM76.0954 8.5061H78.0506V10.3523H76.0954V8.5061ZM76.0954 11.8792H78.0506V20.7304H76.0954V11.8792ZM79.7981 8.5061H81.7533V20.7304H79.7981V8.5061ZM87.7485 20.972C87.0391 20.972 86.4076 20.8512 85.8539 20.6183C85.3002 20.3853 84.8331 20.0575 84.4438 19.652C84.0631 19.238 83.769 18.7462 83.57 18.1768C83.371 17.6075 83.2672 16.9777 83.2672 16.2962C83.2672 15.6233 83.371 15.0021 83.57 14.4328C83.769 13.8634 84.0631 13.3717 84.4438 12.9576C84.8244 12.5435 85.3002 12.2243 85.8539 11.9914C86.4076 11.7584 87.0391 11.6377 87.7485 11.6377C88.4579 11.6377 89.0894 11.7584 89.6431 11.9914C90.1968 12.2243 90.6639 12.5521 91.0532 12.9576C91.4339 13.3717 91.728 13.8634 91.927 14.4328C92.126 15.0021 92.2298 15.6233 92.2298 16.2962C92.2298 16.9777 92.126 17.6075 91.927 18.1768C91.728 18.7462 91.4339 19.238 91.0532 19.652C90.6726 20.0661 90.1968 20.3853 89.6431 20.6183C89.0894 20.8512 88.4579 20.972 87.7485 20.972ZM87.7485 19.4277C88.181 19.4277 88.5617 19.3328 88.8818 19.1517C89.2019 18.9705 89.4614 18.729 89.669 18.4356C89.8767 18.1423 90.0237 17.8059 90.1276 17.4349C90.2227 17.064 90.2746 16.6844 90.2746 16.2962C90.2746 15.9166 90.2227 15.5456 90.1276 15.1661C90.0324 14.7865 89.8767 14.4587 89.669 14.1653C89.4614 13.872 89.2019 13.6391 88.8818 13.4579C88.5617 13.2768 88.181 13.1819 87.7485 13.1819C87.3159 13.1819 86.9353 13.2768 86.6152 13.4579C86.2951 13.6391 86.0356 13.8807 85.8279 14.1653C85.6203 14.4587 85.4732 14.7865 85.3694 15.1661C85.2743 15.5456 85.2224 15.9166 85.2224 16.2962C85.2224 16.6844 85.2743 17.064 85.3694 17.4349C85.4646 17.8059 85.6203 18.1423 85.8279 18.4356C86.0356 18.729 86.2951 18.9705 86.6152 19.1517C86.9353 19.3415 87.3159 19.4277 87.7485 19.4277ZM92.8007 11.8792H94.2801V9.22214H96.2353V11.8792H98.0001V13.3372H96.2353V18.0647C96.2353 18.2717 96.2439 18.4443 96.2612 18.5996C96.2785 18.7462 96.3218 18.8756 96.3823 18.9791C96.4429 19.0827 96.538 19.1603 96.6678 19.2121C96.7976 19.2638 96.9619 19.2897 97.1869 19.2897C97.3253 19.2897 97.4637 19.2897 97.6021 19.2811C97.7405 19.2725 97.879 19.2552 98.0174 19.2207V20.7304C97.8011 20.7563 97.5848 20.7735 97.3858 20.7994C97.1782 20.8253 96.9706 20.8339 96.7543 20.8339C96.2353 20.8339 95.82 20.7822 95.5086 20.6873C95.1971 20.5924 94.9462 20.4457 94.7732 20.2559C94.5915 20.0661 94.4791 19.8332 94.4099 19.5485C94.3493 19.2638 94.3061 18.936 94.2974 18.5737V13.3544H92.8181V11.8792H92.8007Z" fill="#191919"/>
<path d="M23.4705 8.50611H14.5079L11.7396 0L8.96257 8.50611L0 8.49748L7.2583 13.7599L4.48128 22.2574L11.7396 17.0036L18.9892 22.2574L16.2209 13.7599L23.4705 8.50611Z" fill="#00B67A"/>
<path d="M16.8437 15.6837L16.2208 13.7599L11.7395 17.0036L16.8437 15.6837Z" fill="#005128"/>
</g>
<defs>
<clipPath id="clip0_31_8370">
<rect width="98" height="24" fill="white"/>
</clipPath>
</defs>
</svg>
